<svg xmlns="http://www.w3.org/2000/svg" xmlns:xlink="http://www.w3.org/1999/xlink" width="500" zoomAndPan="magnify" viewBox="0 0 375 374.999991" height="500" preserveAspectRatio="xMidYMid meet" version="1.0"><defs><clipPath id="267f451a48"><path d="M 1.492188 71.527344 L 374.386719 71.527344 L 374.386719 211 L 1.492188 211 Z M 1.492188 71.527344 " clip-rule="nonzero"/></clipPath><clipPath id="56997b598a"><path d="M 53.363281 163.230469 L 78 163.230469 L 78 303.277344 L 53.363281 303.277344 Z M 53.363281 163.230469 " clip-rule="nonzero"/></clipPath></defs><g clip-path="url(#267f451a48)"><path fill="#3f83f8" d="M 69.164062 115.910156 L 69.160156 115.890625 M 374.332031 141.183594 L 374.390625 141.164062 L 374.277344 141.164062 L 289.921875 109.65625 L 289.875 109.601562 L 289.804688 109.613281 L 231.550781 87.859375 L 231.523438 87.847656 L 231.503906 87.796875 L 231.421875 87.8125 L 187.921875 71.5625 L 187.9375 71.527344 L 118.09375 97.613281 L 69.148438 115.894531 L 1.492188 141.164062 L 89.578125 174.0625 L 93.21875 175.421875 L 144.207031 194.46875 L 187.9375 210.800781 L 237.789062 192.183594 L 282.660156 175.421875 L 294.332031 171.066406 L 374.308594 141.195312 L 374.359375 141.195312 L 374.332031 141.183594 " fill-opacity="1" fill-rule="nonzero"/></g><path fill="#3f83f8" d="M 93.21875 183.351562 L 93.21875 220.613281 L 93.222656 220.613281 C 93.222656 220.644531 93.21875 220.671875 93.21875 220.703125 C 93.21875 236.207031 103.722656 250.246094 120.710938 260.441406 C 137.875 270.742188 161.652344 277.125 187.9375 277.125 C 191.324219 277.125 194.664062 277.015625 197.957031 276.808594 L 197.960938 276.804688 C 223.414062 275.214844 245.863281 267.617188 261.246094 256.429688 C 274.625 246.703125 282.660156 234.261719 282.660156 220.703125 C 282.660156 220.671875 282.65625 220.644531 282.65625 220.613281 L 282.660156 220.613281 L 282.660156 183.351562 L 187.9375 218.730469 L 93.21875 183.351562 " fill-opacity="1" fill-rule="nonzero"/><g clip-path="url(#56997b598a)"><path fill="#3f83f8" d="M 74.910156 267.484375 L 74.859375 266.980469 L 71.78125 235.035156 L 71.648438 233.636719 L 70.167969 218.253906 L 71.414062 218.253906 L 71.414062 201.15625 C 73.125 199.617188 74.207031 197.394531 74.207031 194.90625 C 74.207031 193.632812 73.921875 192.429688 73.414062 191.351562 C 72.589844 189.59375 71.179688 188.171875 69.429688 187.328125 L 69.429688 166.539062 L 62.007812 163.769531 L 62.007812 187.398438 C 59.261719 188.785156 57.378906 191.621094 57.378906 194.90625 C 57.378906 197.394531 58.460938 199.617188 60.171875 201.15625 L 60.171875 218.253906 L 61.53125 218.253906 L 60.632812 227.464844 L 59.511719 238.914062 L 56.753906 267.136719 L 56.746094 267.234375 L 55.246094 282.539062 L 53.914062 296.226562 C 53.878906 296.519531 53.871094 296.855469 53.914062 297.15625 C 54.359375 300.910156 60.046875 303.742188 66.605469 303.488281 C 73.164062 303.234375 78.121094 299.980469 77.671875 296.226562 L 74.910156 267.484375 " fill-opacity="1" fill-rule="nonzero"/></g></svg>