<svg version="1.2" xmlns="http://www.w3.org/2000/svg" viewBox="0 0 1000 901" width="1000" height="1000">
	<title>2206190-ai</title>
	<style>
		.s0 { fill: #ffffff } 
		.s1 { fill: #8a9bbf } 
		.s2 { opacity: .3;fill: #8a9bbf } 
		.s3 { fill: #0089cf } 
		.s4 { fill: #333333 } 
		.s5 { opacity: .1;fill: #333333 } 
		.s6 { fill: #ffbe4a } 
		.s7 { fill: #e7b142 } 
		.s8 { fill: #f5e0b3 } 
		.s9 { fill: #ff9999 } 
		.s10 { fill: #0089d0 } 
		.s11 { opacity: .1;fill: #00334d } 
		.s12 { fill: #27cc72 } 
		.s13 { opacity: .3;fill: #ffffff } 
		.s14 { fill: #0284c7 } 
		.s15 { fill: #1d262d } 
	</style>
	<g id="OBJECTS">
		<g id="&lt;Group&gt;">
			<g id="&lt;Group&gt;" style="opacity: .5">
				<g id="&lt;Group&gt;">
					<path id="&lt;Path&gt;" class="s0" d="m466.2 220c-2.6 4.7-7 8.4-12.6 9.9l-102.4 28.8c-5.6 1.6-9.9 5.2-12.6 9.9-2.6 4.6-3.4 10.3-1.9 15.8 3.2 11.1 14.6 17.5 25.6 14.5h0.1l5.8-1.7c11.1-3.1 22.6 3.4 25.7 14.5 1.6 5.5 0.7 11.2-1.9 15.8-2.6 4.7-7 8.3-12.5 9.9l-192.6 54.1c-11.1 3.2-22.6-3.3-25.8-14.4-1.5-5.5-0.7-11.2 1.9-15.8 2.7-4.7 7-8.3 12.6-9.9l66.1-18.6q0.1 0 0.2-0.1c5.4-1.6 9.7-5.2 12.3-9.7 2.6-4.7 3.5-10.4 1.9-15.9-3.1-11.1-14.6-17.5-25.7-14.4l-10.2 2.8-36.3 10.2c-11 3.1-22.5-3.3-25.6-14.4-1.6-5.5-0.8-11.2 1.8-15.8 2.6-4.7 7-8.4 12.6-9.9l36.2-10.2 233.4-65.6c11.1-3.1 22.6 3.3 25.8 14.4 1.5 5.5 0.7 11.2-1.9 15.8z"/>
				</g>
				<g id="&lt;Group&gt;">
					<path id="&lt;Path&gt;" class="s0" d="m877.9 353.7c0 9.1-6 17.4-15.2 20l-111.6 31.4-158.1 44.4q-0.3 0.1-0.6 0.2l-110.9 31.2c-11.1 3.1-22.6-3.3-25.8-14.4q-0.8-2.9-0.8-5.7c0-9.1 6.1-17.4 15.3-20l111.5-31.4 36.7-10.3c5-1.7 9-5.2 11.4-9.5 2.6-4.6 3.4-10.3 1.9-15.9-3.1-11-14.6-17.5-25.6-14.4q-0.1 0-0.1 0l-17.9 5-60.4 17c-11.1 3.1-22.6-3.3-25.7-14.4-1.6-5.5-0.8-11.2 1.9-15.8 2.6-4.7 7-8.4 12.5-9.9l60.1-16.9q0.1-0.1 0.3-0.1l5.7-1.6c5.5-1.6 9.9-5.2 12.5-9.9 2.6-4.6 3.5-10.3 1.9-15.8-3-11-14.4-17.4-25.4-14.5q-0.1 0-0.3 0l-10.1 2.9c-11.1 3.1-22.6-3.3-25.8-14.4q-0.7-2.9-0.7-5.6c0-9.2 6-17.5 15.2-20.1l269.7-75.8c11.1-3.2 22.5 3.3 25.7 14.4q0.8 2.8 0.8 5.6c0 9.1-6.1 17.5-15.3 20.1l-138.7 39c-5.6 1.6-9.9 5.2-12.5 9.9-2.7 4.6-3.5 10.3-2 15.8 3.1 11 14.5 17.4 25.5 14.5h0.3l5.7-1.7 60.4-16.9c11-3.1 22.6 3.3 25.7 14.4 1.5 5.5 0.7 11.2-1.9 15.8-2.6 4.7-7 8.4-12.5 9.9l-25.8 7.3c-5.6 1.5-9.9 5.1-12.6 9.8-2.6 4.7-3.4 10.3-1.9 15.9 3 10.5 13.6 16.9 24.2 14.8q0 0 0.1-0.1l86.7-24.3c11.1-3.1 22.6 3.3 25.7 14.4 0.6 1.9 0.8 3.8 0.8 5.7z"/>
				</g>
				<g id="&lt;Group&gt;">
					<path id="&lt;Path&gt;" class="s0" d="m511.8 600.9c0 9.1-6 17.4-15.2 20l-269.7 75.9c-11.1 3.1-22.6-3.4-25.7-14.5-0.5-1.9-0.8-3.8-0.8-5.7 0-9.1 6-17.4 15.2-20l44-12.4h0.1c4.5-1.8 8.2-5.1 10.5-9.1 2.6-4.7 3.4-10.4 1.9-15.9-3.1-11.1-14.7-17.6-25.7-14.4l-17.9 5c-11.1 3.1-22.6-3.4-25.8-14.4-1.5-5.6-0.7-11.2 1.9-15.9 2.7-4.6 7-8.3 12.6-9.9l27.5-7.7q0.2 0 0.3-0.1c5.4-1.6 9.7-5.2 12.2-9.7 2.6-4.7 3.5-10.3 1.9-15.9-3.1-11.1-14.6-17.5-25.6-14.4 0 0-0.1 0-0.1 0l-120.9 34c-11.1 3.1-22.6-3.4-25.7-14.4-0.6-1.9-0.8-3.9-0.8-5.7 0-9.1 6-17.5 15.2-20.1l269.7-75.8c11.1-3.1 22.6 3.3 25.7 14.4q0.8 2.9 0.8 5.7c0 9.1-6 17.5-15.2 20.1l-28.1 7.9-0.5 0.1c-5.3 1.7-9.5 5.2-12 9.7-2.6 4.6-3.5 10.3-1.9 15.9 3.1 11.1 14.7 17.5 25.7 14.4l44.4-12.5c11.1-3.1 22.6 3.3 25.7 14.4 1.6 5.6 0.7 11.2-1.9 15.9-2.6 4.6-7 8.3-12.5 9.9l-25.8 7.2c-5.6 1.6-9.9 5.2-12.6 9.9-2.6 4.6-3.4 10.3-1.9 15.8 3 10.5 13.4 16.8 23.9 14.9l80.6-22.7c11.1-3.1 22.6 3.3 25.7 14.4q0.8 2.9 0.8 5.7z"/>
				</g>
				<g id="&lt;Group&gt;">
					<path id="&lt;Path&gt;" class="s0" d="m914 562.1c0 9.1-6 17.5-15.2 20.1l-269.7 75.8q-1.4 0.4-2.8 0.6h-0.1l-47.6 13.4c-11.1 3.1-22.6-3.4-25.7-14.5-0.5-1.9-0.8-3.8-0.8-5.6 0-9.1 6-17.5 15.2-20.1l86.8-24.4c5-1.7 9-5.1 11.4-9.5 2.6-4.6 3.5-10.3 1.9-15.8-3.1-11.1-14.6-17.5-25.7-14.4l-17.9 5c-11.1 3.1-22.6-3.4-25.7-14.5-1.6-5.5-0.7-11.1 1.9-15.8 2.6-4.7 7-8.3 12.5-9.8l192.6-54.2c11.1-3.1 22.6 3.3 25.7 14.4 1.6 5.6 0.7 11.2-1.8 15.9-2.7 4.6-7.1 8.3-12.6 9.8l-25.8 7.3c-5.5 1.5-9.9 5.2-12.5 9.9-2.6 4.6-3.5 10.3-1.9 15.8 3 10.8 14 17.2 24.8 14.6l36-10.1c1-0.3 2-0.5 3.1-0.6l47.4-13.3c11.1-3.1 22.6 3.3 25.7 14.4q0.8 2.8 0.8 5.6z"/>
				</g>
			</g>
			<g id="&lt;Group&gt;">
				<path id="&lt;Path&gt;" class="s1" d="m400.3 401.3c0 1.8-1.5 3.3-3.3 3.3h-13.1v13.2c0 1.8-1.5 3.2-3.3 3.2-1.8 0-3.3-1.4-3.3-3.2v-13.2h-13.2c-1.8 0-3.2-1.5-3.2-3.3 0-0.9 0.3-1.7 0.9-2.3 0.6-0.6 1.4-0.9 2.3-0.9h13.2v-13.2c0-1.8 1.5-3.3 3.3-3.3 0.9 0 1.7 0.4 2.3 1 0.6 0.6 1 1.4 1 2.3v13.2h13.1c1.8 0 3.3 1.4 3.3 3.2z"/>
				<path id="&lt;Path&gt;" class="s1" d="m892.1 497.7c0 1.8-1.4 3.3-3.2 3.3h-13.2v13.2c0 1.8-1.5 3.2-3.3 3.2-1.8 0-3.2-1.4-3.2-3.2v-13.2h-13.2c-1.8 0-3.3-1.5-3.3-3.3 0-0.9 0.4-1.7 1-2.3 0.6-0.6 1.4-0.9 2.3-0.9h13.2v-13.2c0-1.8 1.4-3.3 3.2-3.3 0.9 0 1.7 0.4 2.3 1 0.6 0.6 1 1.4 1 2.3v13.2h13.2c1.8 0 3.2 1.4 3.2 3.2z"/>
				<path id="&lt;Path&gt;" class="s1" d="m913.8 464.2c0 1.2-1 2.3-2.3 2.3h-9.1v9.1c0 1.3-1 2.3-2.3 2.3-1.2 0-2.2-1-2.2-2.3v-9.1h-9.2c-1.3 0-2.3-1.1-2.3-2.3 0-0.7 0.3-1.2 0.7-1.6 0.4-0.4 1-0.7 1.6-0.7h9.2v-9.2c0-1.2 1-2.2 2.2-2.2 0.6 0 1.2 0.2 1.6 0.6 0.4 0.5 0.7 1 0.7 1.6v9.2h9.1c1.3 0 2.3 1 2.3 2.3z"/>
				<path id="&lt;Path&gt;" class="s1" d="m113.4 600.1c0 1.2-1 2.2-2.3 2.2h-9.1v9.2c0 1.2-1 2.2-2.3 2.2-1.2 0-2.3-1-2.3-2.2v-9.2h-9.1c-1.3 0-2.3-1-2.3-2.2 0-0.7 0.3-1.2 0.7-1.7 0.4-0.4 0.9-0.6 1.6-0.6h9.1v-9.2c0-1.2 1.1-2.3 2.3-2.3 0.6 0 1.2 0.3 1.6 0.7 0.4 0.4 0.7 1 0.7 1.6v9.2h9.1c1.3 0 2.3 1 2.3 2.3z"/>
				<path id="&lt;Path&gt;" class="s1" d="m515.6 651.1c0 1.2-1 2.3-2.3 2.3h-9.1v9.1c0 1.3-1.1 2.3-2.3 2.3-1.3 0-2.3-1-2.3-2.3v-9.1h-9.1c-1.3 0-2.3-1.1-2.3-2.3 0-0.6 0.2-1.2 0.7-1.6 0.4-0.4 0.9-0.7 1.6-0.7h9.1v-9.1c0-1.3 1-2.3 2.3-2.3 0.6 0 1.2 0.2 1.6 0.7 0.4 0.4 0.7 0.9 0.7 1.6v9.1h9.1c1.3 0 2.3 1 2.3 2.3z"/>
			</g>
			<g id="v">
				<g id="&lt;Group&gt;">
					<path id="&lt;Path&gt;" class="s2" d="m904.7 723.7c0 14.7-56.2 26.6-125.6 26.6-56.8 0-104.9-8-120.3-19-1.6-1.2-3.7-1.6-5.7-1.3-20.2 2.9-44.7 4.7-71.2 4.7-42 0-79.2-4.4-102-11.1-1.5-0.5-3.1-0.5-4.6-0.1-22.8 6.7-59.8 11-101.5 11q-0.8 0-1.5 0c-5.7 0-9.2 5.5-7.5 10.9q0.3 0.9 0.3 1.8c0 14.8-56.2 26.7-125.5 26.7-69.4 0-125.6-11.9-125.6-26.7 0-14.7 56.2-26.7 125.6-26.7q0.7 0 1.4 0c5.7 0 9.2-5.5 7.5-10.9q-0.3-0.9-0.3-1.8c0-14.7 56.2-26.7 125.6-26.7 42 0 79.2 4.4 101.9 11.2 1.6 0.4 3.1 0.4 4.7 0 22.8-6.7 59.8-11 101.5-11 56.9 0 104.9 8 120.3 19.1 1.7 1.1 3.7 1.6 5.7 1.3 20.2-3 44.8-4.7 71.2-4.7 69.4 0 125.6 11.9 125.6 26.7z"/>
					<g id="&lt;Group&gt;">
						<g id="&lt;Group&gt;">
							<path id="&lt;Compound Path&gt;" fill-rule="evenodd" class="s3" d="m499 596.5v0.2q-0.3 3.7-0.7 7.2-0.2 1.2-0.4 2.5-0.6 4.2-1.4 8.2-0.2 1.3-0.5 2.5-0.8 3.7-1.8 7.2-0.3 1.2-0.6 2.4-1.3 4.2-2.7 8.1-0.5 1.2-0.9 2.3-1.5 3.6-3.1 7-0.5 1.1-1.1 2.2c-1.3 2.6-2.7 5.1-4.2 7.5q-0.6 1.1-1.3 2.2-2.1 3.2-4.4 6.3-0.7 1-1.5 2-2.7 3.4-5.6 6.5-0.9 0.9-1.8 1.8-2.7 2.8-5.7 5.3-0.9 0.8-1.9 1.6-3.3 2.8-6.7 5.2-1.1 0.8-2.1 1.5-3.3 2.2-6.6 4.1-1.1 0.7-2.2 1.3-3.7 2-7.6 3.8c-0.7 0.4-1.5 0.8-2.2 1.1q-3.6 1.6-7.3 3-1.2 0.5-2.3 0.9-4 1.5-8 2.7-1.2 0.4-2.4 0.7-3.9 1.1-7.7 2-1.2 0.3-2.4 0.6-4.2 1-8.3 1.7-1.3 0.2-2.5 0.4c-2.7 0.5-5.4 0.9-8.1 1.2q-1.2 0.2-2.5 0.3-4.3 0.6-8.6 0.9-1.2 0.1-2.5 0.2c-28.7 1.9-50.8-1.7-50.8-1.7l21.1-259.8c0 0 22.3 1 50.2 8.9q1.2 0.3 2.5 0.7 4 1.2 8.1 2.5 1.1 0.4 2.3 0.8 4 1.4 8.1 3 1.2 0.4 2.4 0.9 3.7 1.5 7.4 3.2 1.1 0.5 2.3 1 3.8 1.8 7.5 3.7 1.1 0.6 2.2 1.2 3.5 1.9 6.9 3.9l2.1 1.3q3.5 2.2 7 4.6 1 0.7 2 1.5 3.1 2.2 6.1 4.7 1 0.8 1.9 1.6 3.2 2.7 6.3 5.6 0.9 0.9 1.7 1.8 2.7 2.7 5.3 5.6 0.8 0.9 1.6 1.9 2.7 3.2 5.1 6.7 0.8 1 1.5 2 2.1 3.1 4 6.5 0.7 1.1 1.3 2.2 2 3.6 3.7 7.5 0.6 1.2 1 2.3 1.5 3.4 2.8 7.1 0.4 1.1 0.8 2.3 1.2 4 2.2 8.1 0.3 1.2 0.6 2.5 0.8 3.6 1.4 7.3 0.2 1.3 0.3 2.5 0.6 4.1 0.9 8.3 0.1 1.3 0.1 2.5 0.2 3.6 0.3 7.4-0.1 1.3-0.1 2.5 0 3.8-0.3 7.8 0 0.3 0 0.5-0.1 1.3-0.2 2.5zm-52.5-5.9q0-0.7 0.1-1.4c3.7-57.7-61.2-60.5-61.2-60.5l-8.9 110.2c0 0 65.1 11.3 70-48.3z"/>
							<path id="&lt;Path&gt;" class="s4" d="m360.6 689.5l-1.7 20.4q-1.2 0.1-2.5 0.2l1.7-20.8c0.1-1.7 2.6-1.5 2.5 0.2z"/>
							<path id="&lt;Path&gt;" class="s4" d="m370 708.7q-1.2 0.2-2.5 0.3 0-7-0.1-14c0-1.7 2.5-1.4 2.5 0.2q0.1 6.7 0.1 13.5z"/>
							<path id="&lt;Path&gt;" class="s4" d="m391.3 704.8q-1.2 0.3-2.4 0.6-1.1-6-2.2-11.9c-0.3-1.6 2.1-2.1 2.4-0.5q1.1 5.9 2.2 11.8z"/>
							<path id="&lt;Path&gt;" class="s4" d="m411.7 698.5q-1.2 0.5-2.3 0.9-2-5.4-4-10.8c-0.6-1.5 1.7-2.6 2.2-1q2.1 5.4 4.1 10.9z"/>
							<path id="&lt;Path&gt;" class="s4" d="m431 689.3q-1.1 0.7-2.2 1.3-3-5.1-6-10.2c-0.8-1.4 1.5-2.5 2.3-1.1q2.9 5 5.9 10z"/>
							<path id="&lt;Path&gt;" class="s4" d="m448.3 676.9q-0.9 0.8-1.9 1.6-3.8-4.5-7.7-9.1c-1-1.2 0.9-2.8 1.9-1.6q3.9 4.6 7.7 9.1z"/>
							<path id="&lt;Path&gt;" class="s4" d="m462.9 661.3q-0.7 1-1.5 2-4.5-3.7-8.9-7.4c-1.2-1 0.2-3.1 1.4-2.1q4.5 3.8 9 7.5z"/>
							<path id="&lt;Path&gt;" class="s4" d="m473.9 643.1q-0.5 1.1-1.1 2.2-4.7-2.6-9.4-5.3c-1.4-0.8 0.1-2.8 1.5-2q4.5 2.5 9 5.1z"/>
							<path id="&lt;Path&gt;" class="s4" d="m481.2 623.3q-0.3 1.2-0.6 2.4-4.5-1.5-8.9-3.1c-1.5-0.5-0.6-2.9 0.9-2.4q4.3 1.6 8.6 3.1z"/>
							<path id="&lt;Path&gt;" class="s4" d="m485.3 602.9q-0.2 1.2-0.4 2.5-4-0.7-8-1.4c-1.6-0.3-1.4-2.8 0.2-2.5q4.1 0.7 8.2 1.4z"/>
							<path id="&lt;Path&gt;" class="s4" d="m486.5 584.7q-4 0-8 0.1c-1.7 0-1.4-2.5 0.2-2.5q3.9-0.1 7.9-0.1-0.1 1.3-0.1 2.5z"/>
							<path id="&lt;Path&gt;" class="s4" d="m485.3 564q-4.2 0.8-8.3 1.5c-1.6 0.3-2.1-2.1-0.5-2.4q4.2-0.8 8.5-1.6 0.2 1.3 0.3 2.5z"/>
							<path id="&lt;Path&gt;" class="s4" d="m480.8 543.6q-4.4 1.6-8.7 3.2c-1.5 0.6-2.6-1.7-1-2.2q4.4-1.7 8.9-3.3 0.4 1.1 0.8 2.3z"/>
							<path id="&lt;Path&gt;" class="s4" d="m472.5 524.4q-4.3 2.5-8.6 5c-1.4 0.8-2.5-1.4-1.1-2.3q4.2-2.4 8.4-4.9 0.7 1.1 1.3 2.2z"/>
							<path id="&lt;Path&gt;" class="s4" d="m460.6 507q-3.9 3.3-7.7 6.5c-1.2 1-2.8-0.9-1.6-1.9q3.9-3.3 7.7-6.5 0.8 0.9 1.6 1.9z"/>
							<path id="&lt;Path&gt;" class="s4" d="m445.7 492.1q-3.1 3.8-6.3 7.6c-1 1.2-3.1-0.2-2.1-1.4q3.3-3.9 6.5-7.8 1 0.8 1.9 1.6z"/>
							<path id="&lt;Path&gt;" class="s4" d="m428.7 479.7q-2.6 4.5-5.2 9.1c-0.8 1.4-2.8-0.1-2-1.4q2.5-4.5 5.1-9z"/>
							<path id="&lt;Path&gt;" class="s4" d="m410 469.6q-1.9 5.4-3.9 10.9c-0.5 1.5-2.9 0.6-2.4-0.9q2-5.5 4-11 1.1 0.5 2.3 1z"/>
							<path id="&lt;Path&gt;" class="s4" d="m389.8 461.5q-1.1 6.9-2.3 13.8c-0.3 1.6-2.8 1.4-2.5-0.2q1.2-7.2 2.5-14.4 1.1 0.4 2.3 0.8z"/>
							<path id="&lt;Path&gt;" class="s4" d="m380.6 707.1q-1.3 0.2-2.5 0.4-0.8-9-1.7-18c-0.1-1.6 2.3-2.1 2.5-0.5q0.8 9.1 1.7 18.1z"/>
							<path id="&lt;Path&gt;" class="s4" d="m401.4 702.1q-1.2 0.4-2.4 0.7-2.3-8.3-4.6-16.6c-0.4-1.6 2.1-2 2.5-0.5q2.2 8.2 4.5 16.4z"/>
							<path id="&lt;Path&gt;" class="s4" d="m421.2 694.4c-0.7 0.4-1.5 0.8-2.2 1.1q-3.7-7.7-7.3-15.4c-0.7-1.4 1.5-2.5 2.2-1.1q3.7 7.7 7.3 15.4z"/>
							<path id="&lt;Path&gt;" class="s4" d="m439.7 683.7q-1.1 0.8-2.1 1.5-5-7.1-10-14.1c-0.9-1.3 1-2.9 2-1.6q5 7.1 10.1 14.2z"/>
							<path id="&lt;Path&gt;" class="s4" d="m455.8 669.8q-0.9 0.9-1.8 1.8-6.2-6.2-12.4-12.3c-1.2-1.2 0.8-2.8 1.9-1.6q6.1 6 12.3 12.1z"/>
							<path id="&lt;Path&gt;" class="s4" d="m468.6 652.8q-0.6 1.1-1.3 2.2-6.9-4.8-13.8-9.6c-1.3-0.9 0.1-3 1.4-2 4.6 3.1 9.2 6.3 13.7 9.4z"/>
							<path id="&lt;Path&gt;" class="s4" d="m477.9 633.8q-0.5 1.2-0.9 2.3-7.1-3.2-14.2-6.5c-1.4-0.6-0.6-3 0.9-2.3q7.1 3.2 14.2 6.5z"/>
							<path id="&lt;Path&gt;" class="s4" d="m483.5 613.6q-0.2 1.3-0.5 2.5l-14-3.7c-1.6-0.4-0.7-2.8 0.9-2.3q6.8 1.7 13.6 3.5z"/>
							<path id="&lt;Path&gt;" class="s4" d="m486 595.5l-13.6-1.1c-1.6-0.1-1.4-2.6 0.2-2.5l13.6 1.1q-0.1 1.3-0.2 2.5z"/>
							<path id="&lt;Path&gt;" class="s4" d="m486.3 574.8q-6.8 0.7-13.7 1.3c-1.6 0.2-2.1-2.3-0.5-2.4q7.1-0.7 14.1-1.4 0.1 1.3 0.1 2.5z"/>
							<path id="&lt;Path&gt;" class="s4" d="m483.6 554.2q-7.2 2-14.3 3.9c-1.5 0.4-2-2-0.5-2.4q7.1-2 14.2-4 0.3 1.2 0.6 2.5z"/>
							<path id="&lt;Path&gt;" class="s4" d="m477.2 534.2c-4.6 2.2-9.3 4.4-14 6.6-1.4 0.7-2.5-1.5-1-2.2q7-3.4 14-6.7 0.6 1.2 1 2.3z"/>
							<path id="&lt;Path&gt;" class="s4" d="m467.2 515.7q-6.5 4.6-12.9 9.2c-1.3 0.9-3-1-1.6-1.9q6.5-4.7 13-9.3 0.8 1 1.5 2z"/>
							<path id="&lt;Path&gt;" class="s4" d="m453.7 499.5q-5.6 5.7-11.3 11.4c-1.1 1.2-2.7-0.7-1.6-1.9q5.6-5.6 11.2-11.3 0.9 0.9 1.7 1.8z"/>
							<path id="&lt;Path&gt;" class="s4" d="m437.7 485.8q-4.6 6.6-9.2 13.2c-0.9 1.3-2.9-0.1-2-1.4q4.6-6.7 9.2-13.3 1 0.7 2 1.5z"/>
							<path id="&lt;Path&gt;" class="s4" d="m419.7 474.5q-3.4 7.6-6.9 15.2c-0.7 1.4-3 0.6-2.4-0.9q3.6-7.7 7.1-15.5 1.1 0.6 2.2 1.2z"/>
							<path id="&lt;Path&gt;" class="s4" d="m400.3 465.4q-2.4 9.1-4.8 18.1c-0.4 1.6-2.7 0.7-2.3-0.8q2.4-9.1 4.7-18.2 1.2 0.4 2.4 0.9z"/>
							<path id="&lt;Path&gt;" class="s4" d="m379.4 458.2l-1.8 21.9c-0.2 1.6-2.6 1.4-2.5-0.2l1.8-22.4q1.2 0.3 2.5 0.7z"/>
						</g>
						<path id="&lt;Path&gt;" class="s5" d="m486 595.5v0.2q-0.3 3.7-0.7 7.2-0.2 1.2-0.4 2.5-0.6 4.2-1.4 8.2-0.2 1.3-0.5 2.5-0.8 3.7-1.8 7.2-0.3 1.2-0.6 2.4-1.3 4.2-2.7 8.1-0.5 1.2-0.9 2.3-1.5 3.6-3.1 7-0.5 1.1-1.1 2.2c-1.3 2.6-2.7 5.1-4.2 7.5q-0.6 1.1-1.3 2.2-2.1 3.2-4.4 6.3-0.7 1-1.5 2-2.7 3.4-5.6 6.5-0.9 0.9-1.8 1.8-2.7 2.8-5.7 5.3-0.9 0.8-1.9 1.6-3.3 2.8-6.7 5.2-1.1 0.8-2.1 1.5-3.3 2.2-6.6 4.1-1.1 0.7-2.2 1.3-3.7 2-7.6 3.8c-0.7 0.4-1.5 0.8-2.2 1.1q-3.6 1.6-7.3 3-1.2 0.5-2.3 0.9-4 1.5-8 2.7-1.2 0.4-2.4 0.7-3.9 1.1-7.7 2-1.2 0.3-2.4 0.6-4.2 1-8.3 1.7-1.3 0.2-2.5 0.4c-2.7 0.5-5.4 0.9-8.1 1.2q-1.2 0.2-2.5 0.3-4.3 0.6-8.6 0.9-1.2 0.1-2.5 0.2c-28.7 1.9-50.8-1.7-50.8-1.7l10.5-129.7 51.9 4.2-4.5 55c0 0 65.1 11.3 70-48.3q0-0.7 0.1-1.4l52.6 4.3q0 0.3 0 0.5-0.1 1.3-0.2 2.5z"/>
					</g>
					<g id="&lt;Group&gt;">
						<g id="&lt;Group&gt;">
							<g id="&lt;Group&gt;">
								<path id="&lt;Path&gt;" class="s1" d="m554.6 742.3l-3.4 1c-0.5-0.7-1.2-1.2-1.6-2l-0.7-1.2-0.5-1.3 3.6-0.3 0.4 1.1 0.7 1c0.4 0.7 1 1.1 1.5 1.7z"/>
								<path id="&lt;Path&gt;" class="s1" d="m557.5 744.6c1.3 0.8 2.7 1.5 4 2.3l-2.4 2.1c-1.6-0.9-3.3-1.8-4.7-2.9z"/>
								<path id="&lt;Path&gt;" class="s1" d="m569.3 750.1l-1 2.8-2.6-0.9-2.6-1.1 1.8-2.5c1.4 0.6 2.8 1.1 4.4 1.7z"/>
							</g>
							<path id="&lt;Path&gt;" class="s1" d="m569.3 750.1l-1 2.8-2.6-0.9-2.6-1.1 1.8-2.5c1.4 0.6 2.8 1.1 4.4 1.7z"/>
							<path id="&lt;Path&gt;" class="s1" d="m561.5 746.9l-2.4 2.1c-1.6-0.9-3.3-1.8-4.7-2.9l3.1-1.5c1.3 0.8 2.7 1.5 4 2.3z"/>
							<path id="&lt;Path&gt;" class="s1" d="m554.6 742.3l-3.4 1c-0.5-0.7-1.2-1.2-1.6-2l-0.7-1.2-0.5-1.3 3.6-0.3 0.4 1.1 0.7 1c0.4 0.7 1 1.1 1.5 1.7z"/>
						</g>
						<g id="&lt;Group&gt;">
							<g id="&lt;Group&gt;">
								<path id="&lt;Path&gt;" class="s1" d="m573.1 751.3c1.5 0.6 3.1 1 4.7 1.5l-0.8 2.9c-1.6-0.5-3.2-1-4.8-1.5z"/>
								<path id="&lt;Path&gt;" class="s1" d="m581.6 753.8q2.4 0.6 4.9 1.2l-0.7 2.9q-2.5-0.5-4.9-1.2z"/>
								<path id="&lt;Path&gt;" class="s1" d="m595.2 756.9l-0.6 2.9c-1.6-0.3-3.3-0.7-4.9-1l0.6-2.9q2.4 0.5 4.9 1z"/>
							</g>
							<path id="&lt;Path&gt;" class="s1" d="m595.2 756.9l-0.6 2.9c-1.6-0.3-3.3-0.7-4.9-1l0.6-2.9q2.4 0.5 4.9 1z"/>
							<path id="&lt;Path&gt;" class="s1" d="m586.5 755l-0.7 2.9q-2.5-0.5-4.9-1.2l0.7-2.9q2.4 0.6 4.9 1.2z"/>
							<path id="&lt;Path&gt;" class="s1" d="m577.8 752.8l-0.8 2.9c-1.6-0.5-3.2-1-4.8-1.5l0.9-2.9c1.5 0.6 3.1 1 4.7 1.5z"/>
						</g>
						<g id="&lt;Group&gt;">
							<g id="&lt;Group&gt;">
								<path id="&lt;Path&gt;" class="s1" d="m599.1 757.6l5 0.9-0.5 3-5-0.9z"/>
								<path id="&lt;Path&gt;" class="s1" d="m607.9 759.2l5 0.7-0.5 3-4.9-0.8z"/>
								<path id="&lt;Path&gt;" class="s1" d="m621.7 761.2l-0.3 2.9-5-0.6 0.4-3z"/>
							</g>
							<path id="&lt;Path&gt;" class="s1" d="m621.7 761.2l-0.3 2.9-5-0.6 0.4-3z"/>
							<path id="&lt;Path&gt;" class="s1" d="m612.9 759.9l-0.5 3-4.9-0.8 0.4-2.9z"/>
							<path id="&lt;Path&gt;" class="s1" d="m604.1 758.5l-0.5 3-5-0.9 0.5-3z"/>
						</g>
						<g id="&lt;Group&gt;">
							<g id="&lt;Group&gt;">
								<path id="&lt;Path&gt;" class="s1" d="m625.7 761.7l5 0.6-0.3 2.9-5-0.6z"/>
								<path id="&lt;Path&gt;" class="s1" d="m634.6 762.7l5 0.5-0.3 3-5-0.5z"/>
								<path id="&lt;Path&gt;" class="s1" d="m648.5 764l-0.2 3-5-0.4 0.2-3z"/>
							</g>
							<path id="&lt;Path&gt;" class="s1" d="m648.5 764l-0.2 3-5-0.4 0.2-3z"/>
							<path id="&lt;Path&gt;" class="s1" d="m639.6 763.2l-0.3 3-5-0.5 0.3-3z"/>
							<path id="&lt;Path&gt;" class="s1" d="m630.7 762.3l-0.3 2.9-5-0.6 0.3-2.9z"/>
						</g>
						<g id="&lt;Group&gt;">
							<g id="&lt;Group&gt;">
								<path id="&lt;Path&gt;" class="s1" d="m652.5 764.3l5 0.4-0.2 3-5-0.4z"/>
								<path id="&lt;Path&gt;" class="s1" d="m661.4 765l5 0.3-0.1 3-5.1-0.3z"/>
								<path id="&lt;Path&gt;" class="s1" d="m675.4 765.8l-0.2 3-5-0.3 0.2-3z"/>
							</g>
							<path id="&lt;Path&gt;" class="s1" d="m675.4 765.8l-0.2 3-5-0.3 0.2-3z"/>
							<path id="&lt;Path&gt;" class="s1" d="m666.4 765.3l-0.1 3-5.1-0.3 0.2-3z"/>
							<path id="&lt;Path&gt;" class="s1" d="m657.5 764.7l-0.2 3-5-0.4 0.2-3z"/>
						</g>
						<g id="&lt;Group&gt;">
							<g id="&lt;Group&gt;">
								<path id="&lt;Path&gt;" class="s1" d="m679.4 766l5 0.2-0.1 3-5-0.2z"/>
								<path id="&lt;Path&gt;" class="s1" d="m688.3 766.3l5 0.1v3l-5.1-0.1z"/>
								<path id="&lt;Path&gt;" class="s1" d="m702.3 766.6v3l-5.1-0.1 0.1-3z"/>
							</g>
							<path id="&lt;Path&gt;" class="s1" d="m702.3 766.6v3l-5.1-0.1 0.1-3z"/>
							<path id="&lt;Path&gt;" class="s1" d="m693.3 766.4v3l-5.1-0.1 0.1-3z"/>
							<path id="&lt;Path&gt;" class="s1" d="m684.4 766.2l-0.1 3-5-0.2 0.1-3z"/>
						</g>
						<g id="&lt;Group&gt;">
							<g id="&lt;Group&gt;">
								<path id="&lt;Path&gt;" class="s1" d="m706.3 766.7l5 0.1v3l-5-0.1z"/>
								<path id="&lt;Path&gt;" class="s1" d="m715.3 766.8h5v3h-5z"/>
								<path id="&lt;Path&gt;" class="s1" d="m729.3 769.7l-5 0.1-0.1-3 5-0.1z"/>
							</g>
							<path id="&lt;Path&gt;" class="s1" d="m729.3 769.7l-5 0.1-0.1-3 5-0.1z"/>
							<path id="&lt;Path&gt;" class="s1" d="m720.3 766.8v3h-5v-3z"/>
							<path id="&lt;Path&gt;" class="s1" d="m711.3 766.8v3l-5-0.1v-3z"/>
						</g>
						<g id="&lt;Group&gt;">
							<g id="&lt;Group&gt;">
								<path id="&lt;Path&gt;" class="s1" d="m738.3 766.5v3l-5 0.1v-3z"/>
								<path id="&lt;Path&gt;" class="s1" d="m747.2 766.3l0.1 3-5 0.1-0.1-3z"/>
								<path id="&lt;Path&gt;" class="s1" d="m756.3 768.9l-5 0.3-0.1-3 5-0.2z"/>
							</g>
							<path id="&lt;Path&gt;" class="s1" d="m756.3 768.9l-5 0.3-0.1-3 5-0.2z"/>
							<path id="&lt;Path&gt;" class="s1" d="m747.3 769.3l-5 0.1-0.1-3 5-0.1z"/>
							<path id="&lt;Path&gt;" class="s1" d="m738.3 769.5l-5 0.1v-3l5-0.1z"/>
						</g>
						<g id="&lt;Group&gt;">
							<g id="&lt;Group&gt;">
								<path id="&lt;Path&gt;" class="s1" d="m765.2 765.5l0.2 3-5.1 0.3-0.1-3z"/>
								<path id="&lt;Path&gt;" class="s1" d="m774.1 765l0.2 3-5 0.3-0.2-3z"/>
								<path id="&lt;Path&gt;" class="s1" d="m783.3 767.3l-5 0.4-0.2-3 5-0.4z"/>
							</g>
							<path id="&lt;Path&gt;" class="s1" d="m783.3 767.3l-5 0.4-0.2-3 5-0.4z"/>
							<path id="&lt;Path&gt;" class="s1" d="m774.3 768l-5 0.3-0.2-3 5-0.3z"/>
							<path id="&lt;Path&gt;" class="s1" d="m765.4 768.5l-5.1 0.3-0.1-3 5-0.3z"/>
						</g>
						<g id="&lt;Group&gt;">
							<g id="&lt;Group&gt;">
								<path id="&lt;Path&gt;" class="s1" d="m792.1 763.6l0.2 2.9-5 0.5-0.2-3z"/>
								<path id="&lt;Path&gt;" class="s1" d="m800.9 762.7l0.4 3-5 0.5-0.3-3z"/>
								<path id="&lt;Path&gt;" class="s1" d="m810.2 764.6l-5 0.6-0.3-2.9 4.9-0.6z"/>
							</g>
							<path id="&lt;Path&gt;" class="s1" d="m810.2 764.6l-5 0.6-0.3-2.9 4.9-0.6z"/>
							<path id="&lt;Path&gt;" class="s1" d="m801.3 765.7l-5 0.5-0.3-3 4.9-0.5z"/>
							<path id="&lt;Path&gt;" class="s1" d="m792.3 766.5l-5 0.5-0.2-3 5-0.4z"/>
						</g>
						<g id="&lt;Group&gt;">
							<g id="&lt;Group&gt;">
								<path id="&lt;Path&gt;" class="s1" d="m818.8 760.5l0.4 3-5 0.6-0.4-2.9z"/>
								<path id="&lt;Path&gt;" class="s1" d="m827.6 759.2l0.5 2.9-5 0.8-0.4-3z"/>
								<path id="&lt;Path&gt;" class="s1" d="m837 760.6l-5 0.9-0.5-3 4.9-0.9z"/>
							</g>
							<path id="&lt;Path&gt;" class="s1" d="m837 760.6l-5 0.9-0.5-3 4.9-0.9z"/>
							<path id="&lt;Path&gt;" class="s1" d="m828.1 762.1l-5 0.8-0.4-3 4.9-0.7z"/>
							<path id="&lt;Path&gt;" class="s1" d="m819.2 763.5l-5 0.6-0.4-2.9 5-0.7z"/>
						</g>
						<g id="&lt;Group&gt;">
							<g id="&lt;Group&gt;">
								<path id="&lt;Path&gt;" class="s1" d="m845.3 755.8l0.6 3c-1.6 0.3-3.3 0.7-4.9 1l-0.6-2.9c1.6-0.3 3.2-0.7 4.9-1.1z"/>
								<path id="&lt;Path&gt;" class="s1" d="m853.9 753.8l0.8 2.9q-2.5 0.6-4.9 1.2l-0.7-2.9q2.4-0.6 4.8-1.2z"/>
								<path id="&lt;Path&gt;" class="s1" d="m863.4 754.2c-1.6 0.5-3.2 1-4.8 1.4l-0.9-2.8c1.6-0.5 3.2-0.9 4.8-1.5z"/>
							</g>
							<path id="&lt;Path&gt;" class="s1" d="m863.4 754.2c-1.6 0.5-3.2 1-4.8 1.4l-0.9-2.8c1.6-0.5 3.2-0.9 4.8-1.5z"/>
							<path id="&lt;Path&gt;" class="s1" d="m854.7 756.7q-2.5 0.6-4.9 1.2l-0.7-2.9q2.4-0.6 4.8-1.2z"/>
							<path id="&lt;Path&gt;" class="s1" d="m845.9 758.8c-1.6 0.3-3.3 0.7-4.9 1l-0.6-2.9c1.6-0.3 3.2-0.7 4.9-1.1z"/>
						</g>
						<g id="&lt;Group&gt;">
							<g id="&lt;Group&gt;">
								<path id="&lt;Path&gt;" class="s1" d="m870.7 748.4l1.8 2.4-2.6 1.1-2.6 1-1-2.9c1.6-0.5 2.9-1 4.4-1.6z"/>
								<path id="&lt;Path&gt;" class="s1" d="m878.1 744.5l3 1.6c-1.4 1.1-3 2-4.6 2.9l-2.5-2.2c1.4-0.7 2.8-1.4 4.1-2.3z"/>
								<path id="&lt;Path&gt;" class="s1" d="m887.1 738.8l-0.4 1.3c-0.2 0.4-0.5 0.7-0.7 1.1-0.4 0.8-1.1 1.4-1.6 2.1l-3.4-1c0.5-0.6 1.1-1.1 1.5-1.8 0.2-0.3 0.5-0.6 0.6-0.9l0.5-1.1z"/>
							</g>
							<path id="&lt;Path&gt;" class="s1" d="m887.1 738.8l-0.4 1.3c-0.2 0.4-0.5 0.7-0.7 1.1-0.4 0.8-1.1 1.4-1.6 2.1l-3.4-1c0.5-0.6 1.1-1.1 1.5-1.8 0.2-0.3 0.5-0.6 0.6-0.9l0.5-1.1z"/>
							<path id="&lt;Path&gt;" class="s1" d="m881.1 746.1c-1.4 1.1-3 2-4.6 2.9l-2.5-2.2c1.4-0.7 2.8-1.4 4.1-2.3z"/>
							<path id="&lt;Path&gt;" class="s1" d="m872.5 750.8l-2.6 1.1-2.6 1-1-2.9c1.6-0.5 2.9-1 4.4-1.6z"/>
						</g>
						<g id="&lt;Group&gt;">
							<g id="&lt;Group&gt;">
								<path id="&lt;Path&gt;" class="s1" d="m869.8 721.4l2.6 1.1-1.8 2.5c-1.4-0.6-2.8-1.2-4.3-1.7l1-2.8z"/>
								<path id="&lt;Path&gt;" class="s1" d="m881.1 727.3l-3.1 1.5c-1.2-0.9-2.6-1.6-4-2.3l2.4-2.1c1.7 0.9 3.3 1.8 4.7 2.9z"/>
								<path id="&lt;Path&gt;" class="s1" d="m887.1 734.5l-3.5 0.3-0.5-1-0.6-1c-0.4-0.7-1.1-1.2-1.6-1.8l3.4-1c0.6 0.7 1.3 1.3 1.7 2.1l0.7 1.2z"/>
							</g>
							<path id="&lt;Path&gt;" class="s1" d="m872.4 722.5l-1.8 2.5c-1.4-0.6-2.8-1.2-4.3-1.7l1-2.8 2.5 0.9z"/>
							<path id="&lt;Path&gt;" class="s1" d="m881.1 727.3l-3.1 1.5c-1.2-0.9-2.6-1.6-4-2.3l2.4-2.1c1.7 0.9 3.3 1.8 4.7 2.9z"/>
							<path id="&lt;Path&gt;" class="s1" d="m887.1 734.5l-3.5 0.3-0.5-1-0.6-1c-0.4-0.7-1.1-1.2-1.6-1.8l3.4-1c0.6 0.7 1.3 1.3 1.7 2.1l0.7 1.2z"/>
						</g>
						<g id="&lt;Group&gt;">
							<g id="&lt;Group&gt;">
								<path id="&lt;Path&gt;" class="s1" d="m840.9 713.6c1.7 0.3 3.3 0.6 5 1l-0.7 2.9c-1.6-0.3-3.2-0.7-4.9-1z"/>
								<path id="&lt;Path&gt;" class="s1" d="m849.8 715.5q2.4 0.5 4.9 1.2l-0.8 2.9c-1.6-0.5-3.2-0.8-4.8-1.2z"/>
								<path id="&lt;Path&gt;" class="s1" d="m863.4 719.2l-0.9 2.8c-1.6-0.5-3.2-0.9-4.8-1.4l0.8-2.9c1.6 0.5 3.3 0.9 4.9 1.5z"/>
							</g>
							<path id="&lt;Path&gt;" class="s1" d="m845.9 714.6l-0.7 2.9c-1.6-0.3-3.2-0.7-4.9-1l0.6-2.9c1.7 0.3 3.3 0.6 5 1z"/>
							<path id="&lt;Path&gt;" class="s1" d="m854.7 716.7l-0.8 2.9c-1.6-0.5-3.2-0.8-4.8-1.2l0.7-2.9q2.4 0.5 4.9 1.2z"/>
							<path id="&lt;Path&gt;" class="s1" d="m863.4 719.2l-0.9 2.8c-1.6-0.5-3.2-0.9-4.8-1.4l0.8-2.9c1.6 0.5 3.3 0.9 4.9 1.5z"/>
						</g>
						<g id="&lt;Group&gt;">
							<g id="&lt;Group&gt;">
								<path id="&lt;Path&gt;" class="s1" d="m814.2 709.2l5 0.7-0.5 3-4.9-0.7z"/>
								<path id="&lt;Path&gt;" class="s1" d="m823.1 710.5l5 0.7-0.5 3-4.9-0.8z"/>
								<path id="&lt;Path&gt;" class="s1" d="m836.9 712.8l-0.5 2.9-4.9-0.8 0.5-3z"/>
							</g>
							<path id="&lt;Path&gt;" class="s1" d="m819.2 709.9l-0.5 3-4.9-0.7 0.4-3z"/>
							<path id="&lt;Path&gt;" class="s1" d="m828.1 711.2l-0.5 3-4.9-0.8 0.4-2.9z"/>
							<path id="&lt;Path&gt;" class="s1" d="m836.9 712.8l-0.5 2.9-4.9-0.8 0.5-3z"/>
						</g>
						<g id="&lt;Group&gt;">
							<g id="&lt;Group&gt;">
								<path id="&lt;Path&gt;" class="s1" d="m787.3 706.4l5 0.4-0.3 3-5-0.4z"/>
								<path id="&lt;Path&gt;" class="s1" d="m796.2 707.2l5 0.5-0.3 3-5-0.5z"/>
								<path id="&lt;Path&gt;" class="s1" d="m810.2 708.7l-0.4 3-5-0.6 0.4-3z"/>
							</g>
							<path id="&lt;Path&gt;" class="s1" d="m792.3 706.8l-0.3 3-5-0.4 0.3-3z"/>
							<path id="&lt;Path&gt;" class="s1" d="m801.2 707.7l-0.3 3-5-0.5 0.3-3z"/>
							<path id="&lt;Path&gt;" class="s1" d="m810.2 708.7l-0.4 3-5-0.6 0.4-3z"/>
						</g>
						<g id="&lt;Group&gt;">
							<g id="&lt;Group&gt;">
								<path id="&lt;Path&gt;" class="s1" d="m760.3 704.6l5 0.3-0.2 3-5-0.3z"/>
								<path id="&lt;Path&gt;" class="s1" d="m769.3 705.1l5 0.3-0.2 3-5-0.3z"/>
								<path id="&lt;Path&gt;" class="s1" d="m783.2 706l-0.2 3-5-0.3 0.2-3z"/>
							</g>
							<path id="&lt;Path&gt;" class="s1" d="m765.3 704.9l-0.2 3-5-0.3 0.2-3z"/>
							<path id="&lt;Path&gt;" class="s1" d="m774.3 705.4l-0.2 3-5-0.3 0.2-3z"/>
							<path id="&lt;Path&gt;" class="s1" d="m783.2 706l-0.2 3-5-0.3 0.2-3z"/>
						</g>
						<g id="&lt;Group&gt;">
							<g id="&lt;Group&gt;">
								<path id="&lt;Path&gt;" class="s1" d="m733.3 703.7l5 0.1-0.1 3-5-0.1z"/>
								<path id="&lt;Path&gt;" class="s1" d="m742.3 703.9l5 0.2-0.1 3-5-0.2z"/>
								<path id="&lt;Path&gt;" class="s1" d="m756.3 704.4l-0.2 3-5-0.2 0.1-3z"/>
							</g>
							<path id="&lt;Path&gt;" class="s1" d="m738.3 703.8l-0.1 3-5-0.1 0.1-3z"/>
							<path id="&lt;Path&gt;" class="s1" d="m747.3 704.1l-0.1 3-5-0.2 0.1-3z"/>
							<path id="&lt;Path&gt;" class="s1" d="m756.3 704.4l-0.2 3-5-0.2 0.1-3z"/>
						</g>
						<g id="&lt;Group&gt;">
							<g id="&lt;Group&gt;">
								<path id="&lt;Path&gt;" class="s1" d="m711.3 703.6v3l-5 0.1v-3z"/>
								<path id="&lt;Path&gt;" class="s1" d="m715.3 703.6h5v3h-5z"/>
								<path id="&lt;Path&gt;" class="s1" d="m729.2 703.7v3l-5-0.1v-3z"/>
							</g>
							<path id="&lt;Path&gt;" class="s1" d="m711.3 706.6l-5 0.1v-3l5-0.1z"/>
							<path id="&lt;Path&gt;" class="s1" d="m720.3 703.6v3h-5v-3z"/>
							<path id="&lt;Path&gt;" class="s1" d="m729.2 703.7v3l-5-0.1v-3z"/>
						</g>
						<g id="&lt;Group&gt;">
							<g id="&lt;Group&gt;">
								<path id="&lt;Path&gt;" class="s1" d="m684.2 704.2l0.2 3-5 0.2-0.2-3z"/>
								<path id="&lt;Path&gt;" class="s1" d="m693.2 703.9l0.1 3-5 0.2-0.1-3z"/>
								<path id="&lt;Path&gt;" class="s1" d="m702.3 706.7l-5 0.1-0.1-3 5-0.1z"/>
							</g>
							<path id="&lt;Path&gt;" class="s1" d="m684.4 707.2l-5 0.2-0.2-3 5-0.2z"/>
							<path id="&lt;Path&gt;" class="s1" d="m693.3 706.9l-5 0.2-0.1-3 5-0.2z"/>
							<path id="&lt;Path&gt;" class="s1" d="m702.3 706.7l-5 0.1-0.1-3 5-0.1z"/>
						</g>
						<g id="&lt;Group&gt;">
							<g id="&lt;Group&gt;">
								<path id="&lt;Path&gt;" class="s1" d="m657.3 705.7l0.2 3-5 0.3-0.3-3z"/>
								<path id="&lt;Path&gt;" class="s1" d="m666.2 705.1l0.2 3-5 0.3-0.2-3z"/>
								<path id="&lt;Path&gt;" class="s1" d="m675.3 707.6l-5 0.3-0.1-3 5-0.3z"/>
							</g>
							<path id="&lt;Path&gt;" class="s1" d="m657.5 708.7l-5 0.3-0.3-3 5.1-0.3z"/>
							<path id="&lt;Path&gt;" class="s1" d="m666.4 708.1l-5 0.3-0.2-3 5-0.3z"/>
							<path id="&lt;Path&gt;" class="s1" d="m675.3 707.6l-5 0.3-0.1-3 5-0.3z"/>
						</g>
						<g id="&lt;Group&gt;">
							<g id="&lt;Group&gt;">
								<path id="&lt;Path&gt;" class="s1" d="m630.3 708.1l0.4 3-5 0.6-0.4-3z"/>
								<path id="&lt;Path&gt;" class="s1" d="m639.3 707.2l0.3 3-5 0.5-0.3-3z"/>
								<path id="&lt;Path&gt;" class="s1" d="m648.5 709.4l-5 0.4-0.3-3 5-0.4z"/>
							</g>
							<path id="&lt;Path&gt;" class="s1" d="m630.7 711.1l-5 0.6-0.4-3 5-0.6z"/>
							<path id="&lt;Path&gt;" class="s1" d="m639.6 710.2l-5 0.5-0.3-3 5-0.5z"/>
							<path id="&lt;Path&gt;" class="s1" d="m648.5 709.4l-5 0.4-0.3-3 5-0.4z"/>
						</g>
						<g id="&lt;Group&gt;">
							<g id="&lt;Group&gt;">
								<path id="&lt;Path&gt;" class="s1" d="m603.5 711.9l0.5 3-4.9 0.8-0.6-2.9z"/>
								<path id="&lt;Path&gt;" class="s1" d="m612.4 710.5l0.5 2.9-5 0.8-0.5-2.9z"/>
								<path id="&lt;Path&gt;" class="s1" d="m621.7 712.2l-5 0.7-0.4-3 5-0.7z"/>
							</g>
							<path id="&lt;Path&gt;" class="s1" d="m604 714.9l-4.9 0.8-0.6-2.9 5-0.9z"/>
							<path id="&lt;Path&gt;" class="s1" d="m612.9 713.4l-5 0.8-0.5-2.9 5-0.8z"/>
							<path id="&lt;Path&gt;" class="s1" d="m621.7 712.2l-5 0.7-0.4-3 5-0.7z"/>
						</g>
						<g id="&lt;Group&gt;">
							<g id="&lt;Group&gt;">
								<path id="&lt;Path&gt;" class="s1" d="m577 717.7l0.8 2.9c-1.6 0.5-3.2 0.9-4.8 1.4l-0.9-2.8c1.6-0.6 3.3-1 4.9-1.5z"/>
								<path id="&lt;Path&gt;" class="s1" d="m585.8 715.5l0.6 2.9q-2.4 0.5-4.8 1.2l-0.8-2.9q2.5-0.7 5-1.2z"/>
								<path id="&lt;Path&gt;" class="s1" d="m595.1 716.5c-1.6 0.3-3.2 0.7-4.8 1l-0.7-2.9c1.7-0.4 3.3-0.7 5-1z"/>
							</g>
							<path id="&lt;Path&gt;" class="s1" d="m577.8 720.6c-1.6 0.5-3.2 0.9-4.8 1.4l-0.9-2.8c1.6-0.6 3.3-1 4.9-1.5z"/>
							<path id="&lt;Path&gt;" class="s1" d="m586.4 718.4q-2.4 0.5-4.8 1.2l-0.8-2.9q2.5-0.7 5-1.2z"/>
							<path id="&lt;Path&gt;" class="s1" d="m595.1 716.5c-1.6 0.3-3.2 0.7-4.8 1l-0.7-2.9c1.7-0.4 3.3-0.7 5-1z"/>
						</g>
						<g id="&lt;Group&gt;">
							<g id="&lt;Group&gt;">
								<path id="&lt;Path&gt;" class="s1" d="m551.2 730.1l3.4 1c-0.5 0.6-1.2 1-1.6 1.7-0.2 0.4-0.4 0.7-0.6 1l-0.4 1.1-3.6-0.3 0.5-1.3c0.2-0.4 0.4-0.8 0.6-1.1 0.4-0.8 1.1-1.4 1.7-2.1z"/>
								<path id="&lt;Path&gt;" class="s1" d="m559.1 724.4l2.4 2.1c-1.4 0.7-2.7 1.4-4 2.3l-3.1-1.5c1.4-1.1 3.1-2 4.7-2.9z"/>
								<path id="&lt;Path&gt;" class="s1" d="m569.2 723.3c-1.5 0.6-2.9 1.1-4.3 1.7l-1.8-2.5 2.6-1.1 2.5-0.9z"/>
							</g>
							<path id="&lt;Path&gt;" class="s1" d="m554.6 731.1c-0.5 0.6-1.2 1-1.6 1.7-0.2 0.4-0.4 0.7-0.6 1l-0.4 1.1-3.6-0.3 0.5-1.3c0.2-0.4 0.4-0.8 0.6-1.1 0.4-0.8 1.1-1.4 1.7-2.1z"/>
							<path id="&lt;Path&gt;" class="s1" d="m561.5 726.5c-1.4 0.7-2.7 1.4-4 2.3l-3.1-1.5c1.4-1.1 3.1-2 4.7-2.9z"/>
							<path id="&lt;Path&gt;" class="s1" d="m569.2 723.3c-1.5 0.6-2.9 1.1-4.3 1.7l-1.8-2.5 2.6-1.1 2.5-0.9z"/>
						</g>
					</g>
					<g id="&lt;Group&gt;">
						<g id="&lt;Group&gt;">
							<path id="&lt;Path&gt;" class="s6" d="m278.2 699.7q0 1.8-0.8 3.6-0.1 0.2-0.2 0.5 0 0 0 0l-16.8 32.5-4 7.7c-1.5 3-4.2 4.7-7.1 5.2-2.7 0.4-5.6-0.3-7.9-2.4l-7.8-7-28-24.9c-0.9-0.8-1.7-1.8-2.2-3l-0.5-1q-0.2-0.8-0.4-1.7c-3-19.2-18.1-115.2-26.8-172.9q0 0 0-0.1-0.1-0.3-0.1-0.5-0.1-0.5-0.2-1.1 0-0.2 0-0.4-0.1-0.5-0.2-1.1 0-0.1 0-0.3-0.1-0.5-0.2-1-0.2-1.4-0.4-3c-1.1-7.2-2.1-13.6-2.8-19q-0.3-2-0.6-3.7-0.1-1-0.2-1.9-0.2-0.9-0.3-1.7-0.3-2.8-0.6-4.9c-4.3-33.4 6.4-57 30.1-60.7 22.9-3.6 40.2 12.1 46.2 54.2l0.6 3.9q0.2 1.7 0.5 3.7 0.2 1.3 0.4 2.7c0.6 4.1 1.3 8.7 2.1 13.8l0.5 3.8 0.8 5.2c8.6 57.3 23.8 155 26.8 173.7q0.2 0.9 0.1 1.8z"/>
							<path id="&lt;Path&gt;" class="s1" d="m251.3 524.2c0 0-13.2 8.9-35.4 12.5-11.3 1.9-24.9 2.4-40.2-0.4q0 0 0-0.1 0-0.1-0.1-0.5-0.1-0.5-0.2-1.1-0.1-0.6-0.2-1.5 0-0.1 0-0.3-0.1-0.5-0.2-1-0.2-1.4-0.4-3c-0.9-5.5-2-13.1-2.8-19q-0.3-2-0.6-3.7-0.1-1-0.2-1.9-0.2-0.9-0.3-1.7l0.1 0.1c0 0 16.9 4.6 39.9 0.8 10.9-1.7 23.2-5.4 35.7-12.3l0.6 3.9 0.5 3.7 0.4 2.7 2.1 13.8 0.5 3.8z"/>
							<g id="&lt;Group&gt;">
								<path id="&lt;Path&gt;" class="s7" d="m223 706.5q-4.1-19.5-7.4-39.2c-2.3-13.1-4.4-26.2-6.4-39.4-1.9-13.1-3.8-26.3-5.4-39.5q-2.6-19.8-4.4-39.7 4.1 19.6 7.4 39.3c2.3 13.1 4.4 26.2 6.4 39.3 1.9 13.2 3.8 26.4 5.4 39.6q2.6 19.7 4.4 39.6z"/>
								<path id="&lt;Path&gt;" class="s7" d="m235.9 543.4q4.1 19.6 7.4 39.2c2.3 13.1 4.4 26.3 6.4 39.4 1.9 13.2 3.8 26.3 5.4 39.5q2.6 19.8 4.4 39.7-4.1-19.5-7.5-39.2c-2.2-13.1-4.3-26.2-6.3-39.4-1.9-13.1-3.8-26.3-5.4-39.5q-2.6-19.8-4.4-39.7z"/>
							</g>
							<path id="&lt;Path&gt;" class="s8" d="m277.4 703.3q-0.1 0.2-0.2 0.5 0 0 0 0l-16.8 32.5-4 7.7c-1.5 3-4.2 4.7-7.1 5.2-2.7 0.4-5.6-0.3-7.9-2.4l-7.8-7-28-24.9c-0.9-0.8-1.7-1.8-2.2-3l-0.5-1 4-5.8c1.5-2.2 4.5-2.8 6.7-1.4l6.8 4.3c1.9 1.2 4.5 0.9 6.1-0.7l10.8-10.7c1-1 2.2-1.5 3.5-1.4 0.7 0 1.4 0.1 2 0.4l13.8 6.2c2.1 0.9 4.6 0.3 6-1.5l2.9-3.8c1.6-2.1 4.6-2.6 6.7-1l3.4 2.3c1.7 1.2 2.5 3.5 1.8 5.5z"/>
							<path id="&lt;Path&gt;" class="s4" d="m260.4 736.3l-4 7.7c-1.5 3-4.2 4.7-7.1 5.2-2.7 0.4-5.6-0.3-7.9-2.4l-7.8-7c3-1.5 7.8-3.7 13.5-4.5 4.2-0.6 8.7-0.5 13.3 1z"/>
							<g id="&lt;Group&gt;">
								<path id="&lt;Path&gt;" class="s9" d="m246.4 491.1c-12.5 6.9-24.8 10.6-35.7 12.3-23 3.8-39.9-0.8-39.9-0.8l-0.1-0.1q-0.3-2.8-0.6-4.9c-4.3-33.4 6.4-57 30.1-60.7 22.9-3.6 40.2 12.1 46.2 54.2z"/>
								<path id="&lt;Path&gt;" class="s0" d="m186.8 449.5c-9.6 10-13.4 23.5-10.4 37 1 4.9 8.5 2.8 7.4-2-2.4-10.8 0.7-21.6 8.4-29.6 3.5-3.5-2-9-5.4-5.4z"/>
							</g>
						</g>
						<path id="&lt;Path&gt;" class="s5" d="m278.2 699.7q0 1.8-0.8 3.6-0.1 0.2-0.2 0.5 0 0 0 0l-16.8 32.5-4 7.7c-1.5 3-4.2 4.7-7.1 5.2l-2.2-13.9-6.3-40.1-24.9-158.5-5.2-33.3-10.5-66.5c22.9-3.6 40.2 12.1 46.2 54.2l0.6 3.9 0.5 3.7 0.4 2.7 2.1 13.8 0.5 3.8 0.8 5.2c8.6 57.3 23.8 155 26.8 173.7q0.2 0.9 0.1 1.8z"/>
					</g>
					<g id="&lt;Group&gt;">
						<path id="&lt;Compound Path&gt;" fill-rule="evenodd" class="s10" d="m715.8 625.3c3.4 25.5-36.5 51.6-93.3 49q-7.2-0.3-14.7-1.2c-51.8-6.6-92.1-46.3-102.3-123.2-10.3-76.8 45.9-128 100.1-135.2 58.2-7.8 106.1 23.8 114.4 85.8 6.8 51.5-53.4 68.6-50.4 91.1 3 22.4 42.5 6.1 46.2 33.7zm-42.9-104.1c-1.9-14.7-15.5-25.1-30.2-23.1-14.8 2-25.2 15.5-23.2 30.3 1.9 14.7 15.5 25.1 30.3 23.1 14.7-2 25.1-15.5 23.1-30.3z"/>
						<path id="&lt;Compound Path&gt;" fill-rule="evenodd" class="s11" d="m715.8 625.3c3.4 25.5-36.5 51.6-93.3 49h-0.1l-16.8-259.6c58.2-7.8 106.1 23.8 114.4 85.8 6.8 51.5-53.4 68.6-50.4 91.1 3 22.4 42.5 6.1 46.2 33.7zm-42.9-104.1c-1.9-14.7-15.5-25.1-30.2-23.1-14.8 2-25.2 15.5-23.2 30.3 1.9 14.7 15.5 25.1 30.3 23.1 14.7-2 25.1-15.5 23.1-30.3z"/>
						<g id="&lt;Group&gt;">
							<path id="&lt;Path&gt;" class="s9" d="m562.7 520.1c-0.6-7.8-7.5-16.6-13.7-20-4.2-2.3-8.7-2.2-12.2 0.2q-0.8-0.2-1.6-0.3c-5.5-0.2-12.9 3.9-15.2 9.6-2.3 5.3-2.3 14.1 1.4 18.6 2.8 3.4 6.7 6.2 10.8 7.6q0.7 0.8 1.8 1.3c7.5 3 17.8 4.6 24.4-1.7 2.5-2.5 3.8-6.3 3.6-9.9 0.6-1.7 0.8-3.5 0.7-5.4z"/>
							<path id="&lt;Path&gt;" class="s0" d="m531.2 507.4c-5.9 3.1-8.6 9.6-7.1 16 1.1 4.2 7.5 2.4 6.5-1.8-0.9-3.6 0.7-6.7 4-8.4 3.8-2 0.4-7.8-3.4-5.8z"/>
						</g>
						<g id="&lt;Group&gt;">
							<path id="&lt;Path&gt;" class="s12" d="m561.6 557.8c-2.7-1.7-6.4-1.1-9.9 0.4-4-3-8.4-5.3-13-4.6-7.1 1-12.8 7.1-13.9 14.2-1.2 7.6 2.9 14.9 9.8 18.3 0.3 0.1 0.6 0.2 0.9 0.4 3.2 8.1 15.7 5.4 22.1 3.3 0.1-0.1 0.2-0.2 0.4-0.2 0.2 0 0.4 0.1 0.6 0.2 16.1 3.6 11.9-26.4 3-32z"/>
							<path id="&lt;Path&gt;" class="s0" d="m535.5 559.3c-5.9 3.1-8.6 9.6-7 16 1 4.2 7.5 2.4 6.4-1.8-0.8-3.6 0.8-6.7 4-8.4 3.8-2 0.4-7.8-3.4-5.8z"/>
						</g>
						<g id="&lt;Group&gt;">
							<path id="&lt;Path&gt;" class="s1" d="m563.7 634.3c2.8 2.1 5.1 3.4 8.5 3.1 2.2-0.2 3.8-1 5.9-0.8 2.7 0.2 5.2 1.4 7.9 1.5 13.8 0.7 16-14.6 8-21.9q0-0.8-0.2-1.5-0.1-0.4-0.3-0.7c-0.3-4.5-2.5-7.9-7.4-10-11-4.5-30.2-0.9-32.1 13.2-1 6.9 4.5 13.2 9.7 17.1z"/>
							<path id="&lt;Path&gt;" class="s0" d="m567.3 607.1c-5.9 3.1-8.6 9.6-7.1 16 1 4.2 7.5 2.4 6.5-1.8-0.9-3.6 0.7-6.7 3.9-8.4 3.9-2 0.5-7.8-3.3-5.8z"/>
						</g>
						<g id="&lt;Group&gt;">
							<path id="&lt;Path&gt;" class="s6" d="m564.5 451.2q-0.9 1.3-1.4 2.6c-13.5 2-20.2 17.3-9.3 29.2 6.5 6.9 12.8 8.9 22.1 6.9 8.2-1.8 16.3-7.1 17.8-16 2-11.8-18.8-37.3-29.2-22.7z"/>
							<path id="&lt;Path&gt;" class="s0" d="m559.6 459.7c-5.9 3.1-8.6 9.6-7 16 1 4.2 7.5 2.5 6.4-1.7-0.8-3.6 0.8-6.8 4-8.5 3.8-2 0.4-7.8-3.4-5.8z"/>
						</g>
					</g>
					<g id="&lt;Group&gt;">
						<g id="&lt;Group&gt;">
							<path id="&lt;Path&gt;" class="s12" d="m810.2 366.8v41.8c0 2.1-1.7 3.8-3.8 3.8h-7.7c-2.1 0-3.9-1.7-3.9-3.8v-41.8c0-2.2 1.8-3.9 3.9-3.9h7.7c2.1 0 3.8 1.7 3.8 3.9z"/>
							<path id="&lt;Path&gt;" class="s5" d="m810.2 366.8v41.8c0 2.1-1.7 3.8-3.8 3.8h-3.9v-49.5h3.9c2.1 0 3.8 1.7 3.8 3.9z"/>
						</g>
						<g id="&lt;Group&gt;">
							<path id="&lt;Path&gt;" class="s12" d="m889.8 595.6h-175.5c-1.9 0-3.4-1.5-3.4-3.4 0-1.8 1.5-3.3 3.4-3.3h175.5c1.9 0 3.4 1.5 3.4 3.3 0 1.9-1.5 3.4-3.4 3.4z"/>
							<path id="&lt;Path&gt;" class="s6" d="m802.5 611.1h-1.1c-1.9 0-3.4-1.5-3.4-3.4v-31.8c0-1.9 1.5-3.4 3.4-3.4h1.1c1.9 0 3.4 1.5 3.4 3.4v31.8c0 1.9-1.5 3.4-3.4 3.4z"/>
							<g id="&lt;Group&gt;">
								<path id="&lt;Path&gt;" class="s1" d="m845.5 445.3c0 13.4-6.1 25.3-15.7 33.2-6.2 5.1-13.8 8.5-22.2 9.5l-2.9-10.7c8.7-0.6 16.5-4.6 21.9-10.8 5-5.7 8-13.1 8-21.2 0-17.7-14.4-32-32.1-32-17.7 0-32 14.3-32 32 0 8.1 3 15.5 7.9 21.2 5.4 6.2 13.2 10.3 22 10.8l-2.9 10.7c-8.4-1-16.1-4.4-22.3-9.5-9.5-7.9-15.6-19.8-15.6-33.2 0-23.7 19.2-42.9 42.9-42.9 23.7 0 43 19.2 43 42.9z"/>
								<path id="&lt;Path&gt;" class="s5" d="m845.5 445.3c0 13.4-6.1 25.3-15.7 33.2-6.2 5.1-13.8 8.5-22.2 9.5l-2.9-10.7c8.7-0.6 16.5-4.6 21.9-10.8 5-5.7 8-13.1 8-21.2 0-17.7-14.4-32-32.1-32v-10.9c23.7 0 43 19.2 43 42.9z"/>
							</g>
							<g id="&lt;Group&gt;">
								<path id="&lt;Path&gt;" class="s9" d="m807.3 451.6l-4.8 17.8-2.1 7.9-2.9 10.7-64.1 237-5.5-1.5-12.1-3.2-5.5-1.5 64.9-240.3 3.2-12 5.7-21.2 13 3.5z"/>
								<path id="&lt;Path&gt;" class="s1" d="m715.8 720.3l12.1 3.2-10 13.2z"/>
							</g>
							<path id="&lt;Path&gt;" class="s9" d="m784.2 445.3h36.7l-20.9 14.9z"/>
							<g id="&lt;Group&gt;">
								<path id="&lt;Path&gt;" class="s9" d="m894.8 718.8l-5.6 1.5-12 3.2-5.6 1.5-64-237-2.9-10.7-2.2-7.9-2.5-9.2-2.3-8.6h0.1l-0.7-2.8-0.9-3.5h24.7l5.7 21.2 3.2 12z"/>
								<path id="&lt;Path&gt;" class="s5" d="m894.8 718.8l-5.6 1.5-12 3.2-5.6 1.5-64-237-2.9-10.7-2.2-7.9-2.5-9.2-2.3-8.6h0.1l-0.7-2.8-0.9-3.5h24.7l5.7 21.2 3.2 12z"/>
								<path id="&lt;Path&gt;" class="s4" d="m889.2 720.3l-2 16.4-10-13.2z"/>
							</g>
						</g>
					</g>
					<g id="&lt;Group&gt;">
						<g id="&lt;Group&gt;">
							<g id="&lt;Group&gt;">
								<g id="&lt;Group&gt;">
									<path id="&lt;Path&gt;" class="s1" d="m129.9 740.2v5h-3v-5z"/>
									<path id="&lt;Path&gt;" class="s1" d="m126.9 749.1h3v5h-3z"/>
									<path id="&lt;Path&gt;" class="s1" d="m126.9 758h3v4.9h-3z"/>
								</g>
								<path id="&lt;Path&gt;" class="s1" d="m129.9 740.2v5h-3v-5z"/>
								<path id="&lt;Path&gt;" class="s1" d="m129.9 749.1v5h-3v-5z"/>
								<path id="&lt;Path&gt;" class="s1" d="m129.9 758v4.9h-3v-4.9z"/>
							</g>
							<g id="&lt;Group&gt;">
								<g id="&lt;Group&gt;">
									<path id="&lt;Path&gt;" class="s1" d="m129.9 713.5v4.9h-3v-4.9z"/>
									<path id="&lt;Path&gt;" class="s1" d="m126.9 722.4h3v4.9h-3z"/>
									<path id="&lt;Path&gt;" class="s1" d="m126.9 731.2h3v5h-3z"/>
								</g>
								<path id="&lt;Path&gt;" class="s1" d="m129.9 713.5v4.9h-3v-4.9z"/>
								<path id="&lt;Path&gt;" class="s1" d="m129.9 722.4v4.9h-3v-4.9z"/>
								<path id="&lt;Path&gt;" class="s1" d="m129.9 731.2v5h-3v-5z"/>
							</g>
							<g id="&lt;Group&gt;">
								<g id="&lt;Group&gt;">
									<path id="&lt;Path&gt;" class="s1" d="m129.9 686.7v5h-3v-5z"/>
									<path id="&lt;Path&gt;" class="s1" d="m126.9 695.6h3v5h-3z"/>
									<path id="&lt;Path&gt;" class="s1" d="m126.9 704.5h3v5h-3z"/>
								</g>
								<path id="&lt;Path&gt;" class="s1" d="m129.9 686.7v5h-3v-5z"/>
								<path id="&lt;Path&gt;" class="s1" d="m129.9 695.6v5h-3v-5z"/>
								<path id="&lt;Path&gt;" class="s1" d="m129.9 704.5v5h-3v-5z"/>
							</g>
							<g id="&lt;Group&gt;">
								<g id="&lt;Group&gt;">
									<path id="&lt;Path&gt;" class="s1" d="m129.9 660v5h-3v-5z"/>
									<path id="&lt;Path&gt;" class="s1" d="m126.9 668.9h3v5h-3z"/>
									<path id="&lt;Path&gt;" class="s1" d="m126.9 677.8h3v4.9h-3z"/>
								</g>
								<path id="&lt;Path&gt;" class="s1" d="m129.9 660v5h-3v-5z"/>
								<path id="&lt;Path&gt;" class="s1" d="m129.9 668.9v5h-3v-5z"/>
								<path id="&lt;Path&gt;" class="s1" d="m129.9 677.8v4.9h-3v-4.9z"/>
							</g>
							<g id="&lt;Group&gt;">
								<g id="&lt;Group&gt;">
									<path id="&lt;Path&gt;" class="s1" d="m129.9 633.3v4.9h-3v-4.9z"/>
									<path id="&lt;Path&gt;" class="s1" d="m126.9 642.2h3v4.9h-3z"/>
									<path id="&lt;Path&gt;" class="s1" d="m126.9 651h3v5h-3z"/>
								</g>
								<path id="&lt;Path&gt;" class="s1" d="m129.9 633.3v4.9h-3v-4.9z"/>
								<path id="&lt;Path&gt;" class="s1" d="m129.9 642.2v4.9h-3v-4.9z"/>
								<path id="&lt;Path&gt;" class="s1" d="m129.9 651v5h-3v-5z"/>
							</g>
							<g id="&lt;Group&gt;">
								<g id="&lt;Group&gt;">
									<path id="&lt;Path&gt;" class="s1" d="m129.9 606.5v5h-3v-5z"/>
									<path id="&lt;Path&gt;" class="s1" d="m126.9 615.4h3v5h-3z"/>
									<path id="&lt;Path&gt;" class="s1" d="m126.9 624.3h3v5h-3z"/>
								</g>
								<path id="&lt;Path&gt;" class="s1" d="m129.9 606.5v5h-3v-5z"/>
								<path id="&lt;Path&gt;" class="s1" d="m129.9 615.4v5h-3v-5z"/>
								<path id="&lt;Path&gt;" class="s1" d="m129.9 624.3v5h-3v-5z"/>
							</g>
							<g id="&lt;Group&gt;">
								<g id="&lt;Group&gt;">
									<path id="&lt;Path&gt;" class="s1" d="m129.9 579.8v4.9h-3v-4.9z"/>
									<path id="&lt;Path&gt;" class="s1" d="m126.9 588.7h3v4.9h-3z"/>
									<path id="&lt;Path&gt;" class="s1" d="m126.9 597.6h3v4.9h-3z"/>
								</g>
								<path id="&lt;Path&gt;" class="s1" d="m129.9 579.8v4.9h-3v-4.9z"/>
								<path id="&lt;Path&gt;" class="s1" d="m129.9 588.7v4.9h-3v-4.9z"/>
								<path id="&lt;Path&gt;" class="s1" d="m129.9 597.6v4.9h-3v-4.9z"/>
							</g>
							<g id="&lt;Group&gt;">
								<g id="&lt;Group&gt;">
									<path id="&lt;Path&gt;" class="s1" d="m129.9 553v5h-3v-5z"/>
									<path id="&lt;Path&gt;" class="s1" d="m126.9 561.9h3v5h-3z"/>
									<path id="&lt;Path&gt;" class="s1" d="m126.9 570.8h3v5h-3z"/>
								</g>
								<path id="&lt;Path&gt;" class="s1" d="m129.9 553v5h-3v-5z"/>
								<path id="&lt;Path&gt;" class="s1" d="m129.9 561.9v5h-3v-5z"/>
								<path id="&lt;Path&gt;" class="s1" d="m129.9 570.8v5h-3v-5z"/>
							</g>
							<g id="&lt;Group&gt;">
								<g id="&lt;Group&gt;">
									<path id="&lt;Path&gt;" class="s1" d="m129.9 526.3v5h-3v-5z"/>
									<path id="&lt;Path&gt;" class="s1" d="m126.9 535.2h3v5h-3z"/>
									<path id="&lt;Path&gt;" class="s1" d="m126.9 544.1h3v4.9h-3z"/>
								</g>
								<path id="&lt;Path&gt;" class="s1" d="m129.9 526.3v5h-3v-5z"/>
								<path id="&lt;Path&gt;" class="s1" d="m129.9 535.2v5h-3v-5z"/>
								<path id="&lt;Path&gt;" class="s1" d="m129.9 544.1v4.9h-3v-4.9z"/>
							</g>
							<g id="&lt;Group&gt;">
								<g id="&lt;Group&gt;">
									<path id="&lt;Path&gt;" class="s1" d="m129.9 499.6v4.9h-3v-4.9z"/>
									<path id="&lt;Path&gt;" class="s1" d="m126.9 508.5h3v4.9h-3z"/>
									<path id="&lt;Path&gt;" class="s1" d="m126.9 517.3h3v5h-3z"/>
								</g>
								<path id="&lt;Path&gt;" class="s1" d="m129.9 499.6v4.9h-3v-4.9z"/>
								<path id="&lt;Path&gt;" class="s1" d="m129.9 508.5v4.9h-3v-4.9z"/>
								<path id="&lt;Path&gt;" class="s1" d="m129.9 517.3v5h-3v-5z"/>
							</g>
							<g id="&lt;Group&gt;">
								<g id="&lt;Group&gt;">
									<path id="&lt;Path&gt;" class="s1" d="m129.9 472.8v5h-3v-5z"/>
									<path id="&lt;Path&gt;" class="s1" d="m126.9 481.7h3v5h-3z"/>
									<path id="&lt;Path&gt;" class="s1" d="m126.9 490.6h3v5h-3z"/>
								</g>
								<path id="&lt;Path&gt;" class="s1" d="m129.9 472.8v5h-3v-5z"/>
								<path id="&lt;Path&gt;" class="s1" d="m129.9 481.7v5h-3v-5z"/>
								<path id="&lt;Path&gt;" class="s1" d="m129.9 490.6v5h-3v-5z"/>
							</g>
							<g id="&lt;Group&gt;">
								<g id="&lt;Group&gt;">
									<path id="&lt;Path&gt;" class="s1" d="m129.9 446.1v5h-3v-5z"/>
									<path id="&lt;Path&gt;" class="s1" d="m126.9 455h3v5h-3z"/>
									<path id="&lt;Path&gt;" class="s1" d="m126.9 463.9h3v4.9h-3z"/>
								</g>
								<path id="&lt;Path&gt;" class="s1" d="m129.9 446.1v5h-3v-5z"/>
								<path id="&lt;Path&gt;" class="s1" d="m129.9 455v5h-3v-5z"/>
								<path id="&lt;Path&gt;" class="s1" d="m129.9 463.9v4.9h-3v-4.9z"/>
							</g>
							<g id="&lt;Group&gt;">
								<g id="&lt;Group&gt;">
									<path id="&lt;Path&gt;" class="s1" d="m129.9 419.4v4.9h-3v-4.9z"/>
									<path id="&lt;Path&gt;" class="s1" d="m126.9 428.3h3v4.9h-3z"/>
									<path id="&lt;Path&gt;" class="s1" d="m126.9 437.1h3v5h-3z"/>
								</g>
								<path id="&lt;Path&gt;" class="s1" d="m129.9 419.4v4.9h-3v-4.9z"/>
								<path id="&lt;Path&gt;" class="s1" d="m129.9 428.3v4.9h-3v-4.9z"/>
								<path id="&lt;Path&gt;" class="s1" d="m129.9 437.1v5h-3v-5z"/>
							</g>
							<g id="&lt;Group&gt;">
								<g id="&lt;Group&gt;">
									<path id="&lt;Path&gt;" class="s1" d="m145.2 401.3h5.5v3h-5.5z"/>
									<path id="&lt;Path&gt;" class="s1" d="m155.1 401.3h5.5v3h-5.5z"/>
									<path id="&lt;Path&gt;" class="s1" d="m170.4 401.3v3h-5.5v-3z"/>
								</g>
								<path id="&lt;Path&gt;" class="s1" d="m170.4 401.3v3h-5.5v-3z"/>
								<path id="&lt;Path&gt;" class="s1" d="m160.6 401.3v3h-5.5v-3z"/>
								<path id="&lt;Path&gt;" class="s1" d="m150.7 401.3v3h-5.5v-3z"/>
							</g>
							<g id="&lt;Group&gt;">
								<g id="&lt;Group&gt;">
									<path id="&lt;Path&gt;" class="s1" d="m174.9 401.3h5.5v3h-5.5z"/>
									<path id="&lt;Path&gt;" class="s1" d="m184.7 401.3h5.5v3h-5.5z"/>
									<path id="&lt;Path&gt;" class="s1" d="m200 401.3v3h-5.5v-3z"/>
								</g>
								<path id="&lt;Path&gt;" class="s1" d="m200 401.3v3h-5.5v-3z"/>
								<path id="&lt;Path&gt;" class="s1" d="m190.2 401.3v3h-5.5v-3z"/>
								<path id="&lt;Path&gt;" class="s1" d="m180.4 401.3v3h-5.5v-3z"/>
							</g>
							<g id="&lt;Group&gt;">
								<g id="&lt;Group&gt;">
									<path id="&lt;Path&gt;" class="s1" d="m204.5 401.3h5.5v3h-5.5z"/>
									<path id="&lt;Path&gt;" class="s1" d="m214.3 401.3h5.5v3h-5.5z"/>
									<path id="&lt;Path&gt;" class="s1" d="m229.6 401.3v3h-5.5v-3z"/>
								</g>
								<path id="&lt;Path&gt;" class="s1" d="m229.6 401.3v3h-5.5v-3z"/>
								<path id="&lt;Path&gt;" class="s1" d="m219.8 401.3v3h-5.5v-3z"/>
								<path id="&lt;Path&gt;" class="s1" d="m210 401.3v3h-5.5v-3z"/>
							</g>
							<g id="&lt;Group&gt;">
								<g id="&lt;Group&gt;">
									<path id="&lt;Path&gt;" class="s1" d="m234.1 401.3h5.5v3h-5.5z"/>
									<path id="&lt;Path&gt;" class="s1" d="m243.9 401.3h5.5v3h-5.5z"/>
									<path id="&lt;Path&gt;" class="s1" d="m259.2 401.3v3h-5.4v-3z"/>
								</g>
								<path id="&lt;Path&gt;" class="s1" d="m259.2 401.3v3h-5.4v-3z"/>
								<path id="&lt;Path&gt;" class="s1" d="m249.4 401.3v3h-5.5v-3z"/>
								<path id="&lt;Path&gt;" class="s1" d="m239.6 401.3v3h-5.5v-3z"/>
							</g>
							<g id="&lt;Group&gt;">
								<g id="&lt;Group&gt;">
									<path id="&lt;Path&gt;" class="s1" d="m263.7 401.3h5.5v3h-5.5z"/>
									<path id="&lt;Path&gt;" class="s1" d="m273.5 401.3h5.5v3h-5.5z"/>
									<path id="&lt;Path&gt;" class="s1" d="m288.9 401.3v3h-5.5v-3z"/>
								</g>
								<path id="&lt;Path&gt;" class="s1" d="m288.9 401.3v3h-5.5v-3z"/>
								<path id="&lt;Path&gt;" class="s1" d="m279 401.3v3h-5.5v-3z"/>
								<path id="&lt;Path&gt;" class="s1" d="m269.2 401.3v3h-5.5v-3z"/>
							</g>
							<g id="&lt;Group&gt;">
								<g id="&lt;Group&gt;">
									<path id="&lt;Path&gt;" class="s1" d="m307.1 419.4v5h-3v-5z"/>
									<path id="&lt;Path&gt;" class="s1" d="m304.1 428.3h3v4.9h-3z"/>
									<path id="&lt;Path&gt;" class="s1" d="m304.1 437.2h3v4.9h-3z"/>
								</g>
								<path id="&lt;Path&gt;" class="s1" d="m307.1 437.2v4.9h-3v-4.9z"/>
								<path id="&lt;Path&gt;" class="s1" d="m307.1 428.3v4.9h-3v-4.9z"/>
								<path id="&lt;Path&gt;" class="s1" d="m307.1 419.4v5h-3v-5z"/>
							</g>
							<g id="&lt;Group&gt;">
								<g id="&lt;Group&gt;">
									<path id="&lt;Path&gt;" class="s1" d="m307.1 446.1v5h-3v-5z"/>
									<path id="&lt;Path&gt;" class="s1" d="m304.1 455h3v5h-3z"/>
									<path id="&lt;Path&gt;" class="s1" d="m304.1 463.9h3v5h-3z"/>
								</g>
								<path id="&lt;Path&gt;" class="s1" d="m307.1 463.9v5h-3v-5z"/>
								<path id="&lt;Path&gt;" class="s1" d="m307.1 455v5h-3v-5z"/>
								<path id="&lt;Path&gt;" class="s1" d="m307.1 446.1v5h-3v-5z"/>
							</g>
							<g id="&lt;Group&gt;">
								<g id="&lt;Group&gt;">
									<path id="&lt;Path&gt;" class="s1" d="m307.1 472.9v4.9h-3v-4.9z"/>
									<path id="&lt;Path&gt;" class="s1" d="m304.1 481.8h3v4.9h-3z"/>
									<path id="&lt;Path&gt;" class="s1" d="m304.1 490.7h3v4.9h-3z"/>
								</g>
								<path id="&lt;Path&gt;" class="s1" d="m307.1 490.7v4.9h-3v-4.9z"/>
								<path id="&lt;Path&gt;" class="s1" d="m307.1 481.8v4.9h-3v-4.9z"/>
								<path id="&lt;Path&gt;" class="s1" d="m307.1 472.9v4.9h-3v-4.9z"/>
							</g>
							<g id="&lt;Group&gt;">
								<g id="&lt;Group&gt;">
									<path id="&lt;Path&gt;" class="s1" d="m307.1 499.6v5h-3v-5z"/>
									<path id="&lt;Path&gt;" class="s1" d="m304.1 508.5h3v5h-3z"/>
									<path id="&lt;Path&gt;" class="s1" d="m304.1 517.4h3v5h-3z"/>
								</g>
								<path id="&lt;Path&gt;" class="s1" d="m307.1 517.4v5h-3v-5z"/>
								<path id="&lt;Path&gt;" class="s1" d="m307.1 508.5v5h-3v-5z"/>
								<path id="&lt;Path&gt;" class="s1" d="m307.1 499.6v5h-3v-5z"/>
							</g>
							<g id="&lt;Group&gt;">
								<g id="&lt;Group&gt;">
									<path id="&lt;Path&gt;" class="s1" d="m307.1 526.4v4.9h-3v-4.9z"/>
									<path id="&lt;Path&gt;" class="s1" d="m304.1 535.2h3v5h-3z"/>
									<path id="&lt;Path&gt;" class="s1" d="m304.1 544.1h3v5h-3z"/>
								</g>
								<path id="&lt;Path&gt;" class="s1" d="m307.1 544.1v5h-3v-5z"/>
								<path id="&lt;Path&gt;" class="s1" d="m307.1 535.2v5h-3v-5z"/>
								<path id="&lt;Path&gt;" class="s1" d="m307.1 526.4v4.9h-3v-4.9z"/>
							</g>
							<g id="&lt;Group&gt;">
								<g id="&lt;Group&gt;">
									<path id="&lt;Path&gt;" class="s1" d="m307.1 553.1v5h-3v-5z"/>
									<path id="&lt;Path&gt;" class="s1" d="m304.1 562h3v4.9h-3z"/>
									<path id="&lt;Path&gt;" class="s1" d="m304.1 570.9h3v4.9h-3z"/>
								</g>
								<path id="&lt;Path&gt;" class="s1" d="m307.1 570.9v4.9h-3v-4.9z"/>
								<path id="&lt;Path&gt;" class="s1" d="m307.1 562v4.9h-3v-4.9z"/>
								<path id="&lt;Path&gt;" class="s1" d="m307.1 553.1v5h-3v-5z"/>
							</g>
							<g id="&lt;Group&gt;">
								<g id="&lt;Group&gt;">
									<path id="&lt;Path&gt;" class="s1" d="m307.1 579.8v5h-3v-5z"/>
									<path id="&lt;Path&gt;" class="s1" d="m304.1 588.7h3v5h-3z"/>
									<path id="&lt;Path&gt;" class="s1" d="m304.1 597.6h3v5h-3z"/>
								</g>
								<path id="&lt;Path&gt;" class="s1" d="m307.1 597.6v5h-3v-5z"/>
								<path id="&lt;Path&gt;" class="s1" d="m307.1 588.7v5h-3v-5z"/>
								<path id="&lt;Path&gt;" class="s1" d="m307.1 579.8v5h-3v-5z"/>
							</g>
							<g id="&lt;Group&gt;">
								<g id="&lt;Group&gt;">
									<path id="&lt;Path&gt;" class="s1" d="m307.1 606.6v4.9h-3v-4.9z"/>
									<path id="&lt;Path&gt;" class="s1" d="m304.1 615.4h3v5h-3z"/>
									<path id="&lt;Path&gt;" class="s1" d="m304.1 624.3h3v5h-3z"/>
								</g>
								<path id="&lt;Path&gt;" class="s1" d="m307.1 624.3v5h-3v-5z"/>
								<path id="&lt;Path&gt;" class="s1" d="m307.1 615.4v5h-3v-5z"/>
								<path id="&lt;Path&gt;" class="s1" d="m307.1 606.6v4.9h-3v-4.9z"/>
							</g>
							<g id="&lt;Group&gt;">
								<g id="&lt;Group&gt;">
									<path id="&lt;Path&gt;" class="s1" d="m307.1 633.3v5h-3v-5z"/>
									<path id="&lt;Path&gt;" class="s1" d="m304.1 642.2h3v4.9h-3z"/>
									<path id="&lt;Path&gt;" class="s1" d="m304.1 651.1h3v4.9h-3z"/>
								</g>
								<path id="&lt;Path&gt;" class="s1" d="m307.1 651.1v4.9h-3v-4.9z"/>
								<path id="&lt;Path&gt;" class="s1" d="m307.1 642.2v4.9h-3v-4.9z"/>
								<path id="&lt;Path&gt;" class="s1" d="m307.1 633.3v5h-3v-5z"/>
							</g>
							<g id="&lt;Group&gt;">
								<g id="&lt;Group&gt;">
									<path id="&lt;Path&gt;" class="s1" d="m307.1 660v5h-3v-5z"/>
									<path id="&lt;Path&gt;" class="s1" d="m304.1 668.9h3v5h-3z"/>
									<path id="&lt;Path&gt;" class="s1" d="m304.1 677.8h3v5h-3z"/>
								</g>
								<path id="&lt;Path&gt;" class="s1" d="m307.1 677.8v5h-3v-5z"/>
								<path id="&lt;Path&gt;" class="s1" d="m307.1 668.9v5h-3v-5z"/>
								<path id="&lt;Path&gt;" class="s1" d="m307.1 660v5h-3v-5z"/>
							</g>
							<g id="&lt;Group&gt;">
								<g id="&lt;Group&gt;">
									<path id="&lt;Path&gt;" class="s1" d="m307.1 686.8v4.9h-3v-4.9z"/>
									<path id="&lt;Path&gt;" class="s1" d="m304.1 695.7h3v4.9h-3z"/>
									<path id="&lt;Path&gt;" class="s1" d="m304.1 704.6h3v4.9h-3z"/>
								</g>
								<path id="&lt;Path&gt;" class="s1" d="m307.1 704.6v4.9h-3v-4.9z"/>
								<path id="&lt;Path&gt;" class="s1" d="m307.1 695.7v4.9h-3v-4.9z"/>
								<path id="&lt;Path&gt;" class="s1" d="m307.1 686.8v4.9h-3v-4.9z"/>
							</g>
							<g id="&lt;Group&gt;">
								<g id="&lt;Group&gt;">
									<path id="&lt;Path&gt;" class="s1" d="m307.1 713.5v5h-3v-5z"/>
									<path id="&lt;Path&gt;" class="s1" d="m304.1 722.4h3v5h-3z"/>
									<path id="&lt;Path&gt;" class="s1" d="m304.1 731.3h3v5h-3z"/>
								</g>
								<path id="&lt;Path&gt;" class="s1" d="m307.1 731.3v5h-3v-5z"/>
								<path id="&lt;Path&gt;" class="s1" d="m307.1 722.4v5h-3v-5z"/>
								<path id="&lt;Path&gt;" class="s1" d="m307.1 713.5v5h-3v-5z"/>
							</g>
							<g id="&lt;Group&gt;">
								<g id="&lt;Group&gt;">
									<path id="&lt;Path&gt;" class="s1" d="m307.1 740.3v4.9h-3v-4.9z"/>
									<path id="&lt;Path&gt;" class="s1" d="m304.1 749.1h3v5h-3z"/>
									<path id="&lt;Path&gt;" class="s1" d="m304.1 758h3v5h-3z"/>
								</g>
								<path id="&lt;Path&gt;" class="s1" d="m307.1 758v5h-3v-5z"/>
								<path id="&lt;Path&gt;" class="s1" d="m307.1 749.1v5h-3v-5z"/>
								<path id="&lt;Path&gt;" class="s1" d="m307.1 740.3v4.9h-3v-4.9z"/>
							</g>
							<g id="&lt;Group&gt;">
								<g id="&lt;Group&gt;">
									<path id="&lt;Path&gt;" class="s1" d="m263.6 778h5.5v3h-5.5z"/>
									<path id="&lt;Path&gt;" class="s1" d="m273.5 778h5.5v3h-5.5z"/>
									<path id="&lt;Path&gt;" class="s1" d="m288.8 778v3h-5.5v-3z"/>
								</g>
								<path id="&lt;Path&gt;" class="s1" d="m269.1 778v3h-5.5v-3z"/>
								<path id="&lt;Path&gt;" class="s1" d="m279 778v3h-5.5v-3z"/>
								<path id="&lt;Path&gt;" class="s1" d="m288.8 778v3h-5.5v-3z"/>
							</g>
							<g id="&lt;Group&gt;">
								<g id="&lt;Group&gt;">
									<path id="&lt;Path&gt;" class="s1" d="m234 778h5.5v3h-5.5z"/>
									<path id="&lt;Path&gt;" class="s1" d="m243.9 778h5.5v3h-5.5z"/>
									<path id="&lt;Path&gt;" class="s1" d="m259.2 778v3h-5.5v-3z"/>
								</g>
								<path id="&lt;Path&gt;" class="s1" d="m239.5 778v3h-5.5v-3z"/>
								<path id="&lt;Path&gt;" class="s1" d="m249.4 778v3h-5.5v-3z"/>
								<path id="&lt;Path&gt;" class="s1" d="m259.2 778v3h-5.5v-3z"/>
							</g>
							<g id="&lt;Group&gt;">
								<g id="&lt;Group&gt;">
									<path id="&lt;Path&gt;" class="s1" d="m204.4 778h5.5v3h-5.5z"/>
									<path id="&lt;Path&gt;" class="s1" d="m214.3 778h5.5v3h-5.5z"/>
									<path id="&lt;Path&gt;" class="s1" d="m229.6 778v3h-5.5v-3z"/>
								</g>
								<path id="&lt;Path&gt;" class="s1" d="m209.9 778v3h-5.5v-3z"/>
								<path id="&lt;Path&gt;" class="s1" d="m219.8 778v3h-5.5v-3z"/>
								<path id="&lt;Path&gt;" class="s1" d="m229.6 778v3h-5.5v-3z"/>
							</g>
							<g id="&lt;Group&gt;">
								<g id="&lt;Group&gt;">
									<path id="&lt;Path&gt;" class="s1" d="m174.8 778h5.5v3h-5.5z"/>
									<path id="&lt;Path&gt;" class="s1" d="m184.7 778h5.5v3h-5.5z"/>
									<path id="&lt;Path&gt;" class="s1" d="m200 778v3h-5.5v-3z"/>
								</g>
								<path id="&lt;Path&gt;" class="s1" d="m180.3 778v3h-5.5v-3z"/>
								<path id="&lt;Path&gt;" class="s1" d="m190.2 778v3h-5.5v-3z"/>
								<path id="&lt;Path&gt;" class="s1" d="m200 778v3h-5.5v-3z"/>
							</g>
							<g id="&lt;Group&gt;">
								<g id="&lt;Group&gt;">
									<path id="&lt;Path&gt;" class="s1" d="m145.2 778h5.5v3h-5.5z"/>
									<path id="&lt;Path&gt;" class="s1" d="m155.1 778h5.4v3h-5.4z"/>
									<path id="&lt;Path&gt;" class="s1" d="m170.4 778v3h-5.5v-3z"/>
								</g>
								<path id="&lt;Path&gt;" class="s1" d="m150.7 778v3h-5.5v-3z"/>
								<path id="&lt;Path&gt;" class="s1" d="m160.5 778v3h-5.4v-3z"/>
								<path id="&lt;Path&gt;" class="s1" d="m170.4 778v3h-5.5v-3z"/>
							</g>
							<g id="&lt;Group&gt;">
								<path id="&lt;Path&gt;" class="s1" d="m126.7 415.3h3v-5h-3z"/>
								<path id="&lt;Path&gt;" class="s1" d="m126.7 401.3v5h3v-2h2v-3z"/>
								<path id="&lt;Path&gt;" class="s1" d="m135.7 401.3v3h5v-3z"/>
							</g>
							<g id="&lt;Group&gt;">
								<path id="&lt;Path&gt;" class="s1" d="m293.1 401.1v3h5v-3z"/>
								<path id="&lt;Path&gt;" class="s1" d="m307.1 401.1h-5v3h2v2h3z"/>
								<path id="&lt;Path&gt;" class="s1" d="m307.1 410.1h-3v5h3z"/>
							</g>
							<g id="&lt;Group&gt;">
								<path id="&lt;Path&gt;" class="s1" d="m307.3 767h-3v5h3z"/>
								<path id="&lt;Path&gt;" class="s1" d="m307.3 781v-5h-3v2h-2v3z"/>
								<path id="&lt;Path&gt;" class="s1" d="m298.3 781v-3h-5v3z"/>
							</g>
							<g id="&lt;Group&gt;">
								<path id="&lt;Path&gt;" class="s1" d="m140.9 781.2v-3h-5v3z"/>
								<path id="&lt;Path&gt;" class="s1" d="m126.9 781.2h5v-3h-2v-2h-3z"/>
								<path id="&lt;Path&gt;" class="s1" d="m126.9 772.2h3v-5h-3z"/>
							</g>
						</g>
						<g id="&lt;Group&gt;">
							<g id="&lt;Group&gt;">
								<path id="&lt;Path&gt;" class="s0" d="m142.6 417.2h-28.7v-28.7h28.7z"/>
								<path id="&lt;Compound Path&gt;" fill-rule="evenodd" class="s1" d="m143.6 418.2h-30.7v-30.7h30.7zm-28.7-2h26.7v-26.7h-26.7z"/>
							</g>
							<g id="&lt;Group&gt;">
								<path id="&lt;Path&gt;" class="s0" d="m319.9 417.2h-28.6v-28.7h28.6z"/>
								<path id="&lt;Compound Path&gt;" fill-rule="evenodd" class="s1" d="m320.9 418.2h-30.6v-30.7h30.6zm-28.6-2h26.6v-26.7h-26.6z"/>
							</g>
							<g id="&lt;Group&gt;">
								<path id="&lt;Path&gt;" class="s0" d="m142.6 793.9h-28.7v-28.7h28.7z"/>
								<path id="&lt;Compound Path&gt;" fill-rule="evenodd" class="s1" d="m143.6 794.9h-30.7v-30.7h30.7zm-28.7-2h26.7v-26.7h-26.7z"/>
							</g>
							<g id="&lt;Group&gt;">
								<path id="&lt;Path&gt;" class="s0" d="m319.9 793.9h-28.6v-28.7h28.6z"/>
								<path id="&lt;Compound Path&gt;" fill-rule="evenodd" class="s1" d="m320.9 794.9h-30.6v-30.7h30.6zm-28.6-2h26.6v-26.7h-26.6z"/>
							</g>
						</g>
					</g>
				</g>
				<g id="&lt;Group&gt;">
					<g id="&lt;Group&gt;">
						<path id="&lt;Path&gt;" class="s13" d="m661.2 261.7c0 88.3-71.6 159.9-159.9 159.9-88.3 0-159.9-71.6-159.9-159.9 0-88.3 71.6-159.9 159.9-159.9 88.3 0 159.9 71.6 159.9 159.9z"/>
						<path id="&lt;Path&gt;" class="s13" d="m611.1 277.5c0 60.7-49.1 109.8-109.8 109.8-60.6 0-109.8-49.1-109.8-109.8 0-60.6 49.2-109.8 109.8-109.8 60.7 0 109.8 49.2 109.8 109.8z"/>
					</g>
					<g id="&lt;Group&gt;">
						<g id="&lt;Group&gt;">
							<path id="&lt;Path&gt;" class="s6" d="m585.9 302.9c-2.4 44.7-47.3 60.9-49.6 78.9-1.3 10.2-1.6 16.3-1.7 19.7-0.1 2.5 0 3.5 0 3.5 0 0-14.3 8.7-33.3 9.3-10.1 0.3-21.5-1.7-32.8-8.6 0 0 0.6-1.8 1.1-4.7 0.8-5.2 1.1-14.1-3.6-22.1-7.3-12.3-58.4-43.3-51.9-97.4 6.4-53 39.5-76.5 87.2-78.3q1.5-0.1 3.2-0.1c58.4-1.1 83.8 55.1 81.4 99.8z"/>
							<g id="&lt;Group&gt;">
								<g id="&lt;Group&gt;">
									<path id="&lt;Path&gt;" class="s0" d="m472.3 344.8q5.6 34 11.2 68c0.3 1.6 2.7 1 2.4-0.6q-5.6-34.1-11.2-68.1c-0.3-1.6-2.7-0.9-2.4 0.7z"/>
									<path id="&lt;Path&gt;" class="s0" d="m528.1 344.1q-5.7 34-11.3 68.1c-0.2 1.6 2.2 2.2 2.4 0.6q5.7-34 11.3-68c0.2-1.6-2.2-2.3-2.4-0.7z"/>
								</g>
								<path id="&lt;Compound Path&gt;" fill-rule="evenodd" class="s0" d="m511 349.9c-3.4 0-6.8-1-9.7-2.8-2.6 1.8-5.3 2.8-7.4 2.8-4 0-8.3-2-11-6.2-4.2 1.4-8.6 1.7-8.9 1.7l-0.1-2c0.1 0 4.1-0.3 8.1-1.5q-1-2.1-1.4-4.9c-0.5-3 0.5-5.5 2.6-6.9 1.7-1.2 4-1.4 5.8-0.3 1.8 1.1 2.8 3.2 2.5 5.8-0.3 3.7-3.2 5.9-6.6 7.4 2.3 3.3 5.8 4.9 9 4.9 1.5 0 3.5-0.7 5.6-2q-1-0.8-1.9-1.7c-3.3-3.4-5-7.8-4.9-12.7 0.1-5.3 3.5-13 9.2-13 3.2 0 8.6 1.5 8.6 11.6 0 6.8-3.5 12.2-7.5 15.7 2.5 1.3 5.3 2.1 8 2.1 2.9 0 5.3-1.1 7.3-3.2q0.2-0.3 0.4-0.5c-3.7-1.5-7.1-4-7.1-8.2 0-4.9 2.9-6.7 5.4-6.8 2.9-0.2 6.3 1.9 6.7 5.6 0.2 2.3-0.4 5.5-1.9 8.4 3.5 1 6.8 1.2 6.9 1.2l-0.2 2c-0.3 0-4-0.3-7.8-1.5q-0.4 0.6-0.9 1.1c-2.3 2.6-5.4 3.9-8.8 3.9zm-9.1-29.4c-4.3 0-7.1 6.4-7.2 11-0.2 5.5 2.3 9.2 4.4 11.3q0.9 1 2.1 1.8c3.8-3 7.3-8 7.3-14.5 0-6.4-2.2-9.6-6.6-9.6zm15.4 10.7q-0.1 0-0.2 0c-2.2 0.1-3.5 1.9-3.5 4.8 0 3.3 3 5.3 6.2 6.5 1.5-2.6 2.1-5.5 1.9-7.5-0.3-2.4-2.4-3.8-4.4-3.8zm-31-0.1c-0.7 0-1.4 0.2-2 0.6-1.5 1-2.1 2.8-1.8 5q0.4 2.6 1.4 4.5c2.9-1.1 5.4-3 5.6-5.7 0.2-1.9-0.4-3.3-1.5-4-0.5-0.3-1.1-0.4-1.7-0.4z"/>
							</g>
							<g id="&lt;Group&gt;">
								<path id="&lt;Path&gt;" class="s1" d="m538.1 411.6q-0.5 0.3-1 0.4c-11.2 3.5-23.6 5.5-35.8 5.6-12.5 0-25-2-36.1-6.6q-0.3-0.2-0.6-0.3c-5.6-3.1-2.4-12.7 3.9-10.1q0.5 0.2 1.1 0.4c9.8 3.9 20.7 5.6 31.7 5.6 11.4-0.1 22.9-2 33.3-5.1q0-0.1 0-0.1c6.4-1.9 8.9 7.5 3.5 10.2z"/>
								<path id="&lt;Path&gt;" class="s1" d="m538.1 421.7q-0.4 0.2-1 0.4c-11.2 3.4-23.5 5.5-35.8 5.5-12.5 0.1-25-1.9-36.1-6.6q-0.3-0.1-0.6-0.3c-4.3-2.2-3.4-8.4 0-10 1.1-0.6 2.4-0.6 3.9 0 10.1 4.2 21.4 6 32.8 5.9 11.4 0 22.9-1.9 33.3-5.1 1.4-0.4 2.5-0.3 3.5 0.1 3.6 1.6 4.2 7.9 0 10.1z"/>
								<path id="&lt;Path&gt;" class="s1" d="m537.1 432.2q-4.4 1.4-9 2.4c-8.6 1.9-17.8 3.1-26.8 3.1-9.2 0-18.4-1-27-3.5-3.1-0.8-6.2-1.8-9.1-3.1-4.9-2-4.2-8.6-0.6-10.4 1.1-0.5 2.4-0.6 3.9 0.1 10.1 4.2 21.4 6 32.8 5.9 11.4 0 22.9-1.9 33.3-5.1 1.4-0.4 2.6-0.3 3.5 0.1 3.9 1.7 4.3 8.9-1 10.5z"/>
								<path id="&lt;Path&gt;" class="s1" d="m526.5 441.3c-7.9 2.4-16.6 3.8-25.2 3.8-8.8 0.1-17.6-1.3-25.4-4.6-2.8-1.2-3-4.4-1.6-6.3 0.8-1.1 2.2-1.7 3.9-1 7.1 3 15.1 4.3 23.1 4.2 8 0 16.1-1.3 23.4-3.6 1.5-0.4 2.7 0 3.4 0.8 1.8 1.8 1.6 5.7-1.6 6.7z"/>
							</g>
							<g id="&lt;Group&gt;">
								<path id="&lt;Path&gt;" class="s0" d="m443.9 236.9c-13.9 15.1-21 34.1-20.8 54.5 0 6.5 10 5.8 9.9-0.6-0.1-17.9 6.3-34.2 18.4-47.3 4.4-4.7-3.1-11.3-7.5-6.6z"/>
								<path id="&lt;Path&gt;" class="s0" d="m459.2 224.7c-6.4 0.4-5.8 10.3 0.6 9.9 6.4-0.4 5.8-10.4-0.6-9.9z"/>
							</g>
						</g>
						<path id="&lt;Path&gt;" class="s5" d="m585.9 302.9c-2.4 44.7-47.3 60.9-49.6 78.9-1.3 10.2-1.6 16.3-1.7 19.7q0-0.1 0-0.1c6.4-1.9 8.9 7.5 3.5 10.2 3.6 1.6 4.2 7.9 0 10.1 3.9 1.7 4.3 8.9-1 10.5q-4.4 1.4-9 2.4c1.8 1.8 1.6 5.7-1.6 6.7-7.9 2.4-16.6 3.8-25.2 3.8v-241.9q1.5-0.1 3.2-0.1c58.4-1.1 83.8 55.1 81.4 99.8z"/>
					</g>
				</g>
				<g id="&lt;Group&gt;">
					<path id="&lt;Path&gt;" class="s0" d="m333.5 824.5l10.4 24.8-15.5 6.3-10.4-24.7-13.7 13.3v-68l48.1 48.1z"/>
					<path id="&lt;Compound Path&gt;" fill-rule="evenodd" class="s1" d="m327.3 858.2l-10-23.9-15 14.7v-77.6l54.9 54.9-20.7 0.1 10 24zm-8.6-30.9l10.8 25.7 11.8-4.9-10.8-25.7 17.2-0.1-41.4-41.4v58.5z"/>
				</g>
			</g>
			<g id="&lt;Group&gt;">
				<g id="&lt;Group&gt;">
					<path id="&lt;Path&gt;" class="s9" d="m345 253.5c0 32.6-26.4 59-59 59-32.6 0-59-26.4-59-59 0-32.6 26.4-59 59-59 32.6 0 59 26.4 59 59z"/>
					<g id="&lt;Group&gt;">
						<g id="&lt;Group&gt;">
							<g id="&lt;Group&gt;">
								<path id="&lt;Path&gt;" class="s1" d="m315.8 284.3l2.9 1c-0.6 1.5-1.1 3.1-1.8 4.6l-2.8-1.2c0.7-1.4 1.2-2.9 1.7-4.4z"/>
								<path id="&lt;Path&gt;" class="s1" d="m318 276.1l3 0.5c-0.2 1.7-0.8 3.3-1.2 4.9l-2.8-0.8c0.3-1.6 0.9-3.1 1-4.6z"/>
								<path id="&lt;Path&gt;" class="s1" d="m321.9 267.7c-0.1 1.7-0.1 3.4-0.3 5l-3-0.3c0.2-1.6 0.2-3.2 0.3-4.8z"/>
							</g>
							<path id="&lt;Path&gt;" class="s1" d="m318.7 285.3c-0.6 1.5-1.1 3.1-1.8 4.6l-2.8-1.2c0.7-1.4 1.2-2.9 1.7-4.4z"/>
							<path id="&lt;Path&gt;" class="s1" d="m321 276.6c-0.2 1.7-0.8 3.3-1.2 4.9l-2.8-0.8c0.3-1.6 0.9-3.1 1-4.6z"/>
							<path id="&lt;Path&gt;" class="s1" d="m321.9 267.7c-0.1 1.7-0.1 3.4-0.3 5l-3-0.3c0.2-1.6 0.2-3.2 0.3-4.8z"/>
						</g>
						<g id="&lt;Group&gt;">
							<g id="&lt;Group&gt;">
								<path id="&lt;Path&gt;" class="s1" d="m302.5 305.9l2.1 2.1c-1.2 1.1-2.5 2.2-3.7 3.4l-1.9-2.3c1.1-1.1 2.3-2.1 3.5-3.2z"/>
								<path id="&lt;Path&gt;" class="s1" d="m308 299.3l2.4 1.8c-1 1.3-2 2.7-3.1 3.9l-2.3-1.9c1.1-1.2 2-2.5 3-3.8z"/>
								<path id="&lt;Path&gt;" class="s1" d="m315.1 293.6c-0.7 1.5-1.7 2.8-2.5 4.3l-2.5-1.6c0.8-1.4 1.7-2.7 2.4-4.1z"/>
							</g>
							<path id="&lt;Path&gt;" class="s1" d="m304.6 308c-1.2 1.1-2.5 2.2-3.7 3.4l-1.9-2.3c1.1-1.1 2.3-2.1 3.5-3.2z"/>
							<path id="&lt;Path&gt;" class="s1" d="m310.4 301.1c-1 1.3-2 2.7-3.1 3.9l-2.3-1.9c1.1-1.2 2-2.5 3-3.8z"/>
							<path id="&lt;Path&gt;" class="s1" d="m315.1 293.6c-0.7 1.5-1.7 2.8-2.5 4.3l-2.5-1.6c0.8-1.4 1.7-2.7 2.4-4.1z"/>
						</g>
						<g id="&lt;Group&gt;">
							<g id="&lt;Group&gt;">
								<path id="&lt;Path&gt;" class="s1" d="m281 319.4l1 2.8c-0.8 0.3-1.5 0.6-2.3 0.9l-2.5 0.6-0.7-2.9 2.3-0.6c0.7-0.2 1.5-0.5 2.2-0.8z"/>
								<path id="&lt;Path&gt;" class="s1" d="m288.8 316l1.4 2.7-4.5 2.1-1.2-2.7z"/>
								<path id="&lt;Path&gt;" class="s1" d="m297.7 313.8l-2 1.5c-0.6 0.5-1.4 0.9-2.1 1.4l-1.6-2.6c0.7-0.4 1.4-0.8 2.1-1.2l1.9-1.5z"/>
							</g>
							<path id="&lt;Path&gt;" class="s1" d="m282 322.2c-0.8 0.3-1.5 0.6-2.3 0.9l-2.5 0.6-0.7-2.9 2.3-0.6c0.7-0.2 1.5-0.5 2.2-0.8z"/>
							<path id="&lt;Path&gt;" class="s1" d="m290.2 318.7l-4.5 2.1-1.2-2.7 4.3-2.1z"/>
							<path id="&lt;Path&gt;" class="s1" d="m297.7 313.8l-2 1.5c-0.6 0.5-1.4 0.9-2.1 1.4l-1.6-2.6c0.7-0.4 1.4-0.8 2.1-1.2l1.9-1.5z"/>
						</g>
						<g id="&lt;Group&gt;">
							<g id="&lt;Group&gt;">
								<path id="&lt;Path&gt;" class="s1" d="m251.1 321.7l4.7 0.7-0.3 3-5-0.8z"/>
								<path id="&lt;Path&gt;" class="s1" d="m264.3 322.6l0.1 3-2.5 0.2-2.5-0.2 0.2-3 2.3 0.2z"/>
								<path id="&lt;Path&gt;" class="s1" d="m273.3 324.6l-4.9 0.8-0.3-3 4.7-0.7z"/>
							</g>
							<path id="&lt;Path&gt;" class="s1" d="m255.8 322.4l-0.3 3-5-0.8 0.6-2.9z"/>
							<path id="&lt;Path&gt;" class="s1" d="m264.4 325.6l-2.5 0.2-2.5-0.2 0.2-3 2.3 0.2 2.4-0.2z"/>
							<path id="&lt;Path&gt;" class="s1" d="m273.3 324.6l-4.9 0.8-0.3-3 4.7-0.7z"/>
						</g>
						<g id="&lt;Group&gt;">
							<g id="&lt;Group&gt;">
								<path id="&lt;Path&gt;" class="s1" d="m229.8 312.8c0.7 0.5 1.4 0.9 2 1.3l-1.6 2.5c-0.7-0.4-1.4-0.8-2.1-1.3l-2-1.5 1.8-2.4z"/>
								<path id="&lt;Path&gt;" class="s1" d="m235.1 316l4.3 2.1-1.2 2.7-4.5-2.1z"/>
								<path id="&lt;Path&gt;" class="s1" d="m247.4 320.8l-0.8 2.9-2.4-0.6-2.4-0.9 1-2.8 2.3 0.8z"/>
							</g>
							<path id="&lt;Path&gt;" class="s1" d="m231.8 314.1l-1.6 2.5c-0.7-0.4-1.4-0.8-2.1-1.3l-2-1.5 1.8-2.4 1.9 1.4c0.7 0.5 1.4 0.9 2 1.3z"/>
							<path id="&lt;Path&gt;" class="s1" d="m239.4 318.1l-1.2 2.7-4.5-2.1 1.4-2.7z"/>
							<path id="&lt;Path&gt;" class="s1" d="m247.4 320.8l-0.8 2.9-2.4-0.6-2.4-0.9 1-2.8 2.3 0.8z"/>
						</g>
						<g id="&lt;Group&gt;">
							<g id="&lt;Group&gt;">
								<path id="&lt;Path&gt;" class="s1" d="m213.8 296.2l-2.5 1.6c-0.9-1.4-1.8-2.8-2.5-4.3l2.6-1.4c0.7 1.5 1.6 2.8 2.4 4.1z"/>
								<path id="&lt;Path&gt;" class="s1" d="m215.9 299.3c1 1.3 1.9 2.6 3 3.8l-2.3 1.9c-1.2-1.2-2.1-2.6-3.1-3.9z"/>
								<path id="&lt;Path&gt;" class="s1" d="m224.9 309l-1.9 2.3c-1.3-1.1-2.5-2.2-3.7-3.4l2.1-2.1c1.1 1.1 2.3 2.2 3.5 3.2z"/>
							</g>
							<path id="&lt;Path&gt;" class="s1" d="m213.8 296.2l-2.5 1.6c-0.9-1.4-1.8-2.8-2.5-4.3l2.6-1.4c0.7 1.5 1.6 2.8 2.4 4.1z"/>
							<path id="&lt;Path&gt;" class="s1" d="m218.9 303.1l-2.3 1.9c-1.2-1.2-2.1-2.6-3.1-3.9l2.4-1.8c1 1.3 1.9 2.6 3 3.8z"/>
							<path id="&lt;Path&gt;" class="s1" d="m224.9 309l-1.9 2.3c-1.3-1.1-2.5-2.2-3.7-3.4l2.1-2.1c1.1 1.1 2.3 2.2 3.5 3.2z"/>
						</g>
						<g id="&lt;Group&gt;">
							<g id="&lt;Group&gt;">
								<path id="&lt;Path&gt;" class="s1" d="m205.3 272.3l-3 0.4c-0.2-1.7-0.2-3.4-0.3-5l3-0.1c0.1 1.6 0.1 3.2 0.3 4.7z"/>
								<path id="&lt;Path&gt;" class="s1" d="m206.9 280.7l-2.8 0.8c-0.4-1.7-1-3.2-1.2-4.9l3-0.6c0.1 1.6 0.7 3.1 1 4.7z"/>
								<path id="&lt;Path&gt;" class="s1" d="m209.7 288.7l-2.7 1.2c-0.7-1.5-1.2-3.1-1.8-4.7l2.8-1c0.6 1.5 1 3.1 1.7 4.5z"/>
							</g>
							<path id="&lt;Path&gt;" class="s1" d="m205.3 272.3l-3 0.4c-0.2-1.7-0.2-3.4-0.3-5l3-0.1c0.1 1.6 0.1 3.2 0.3 4.7z"/>
							<path id="&lt;Path&gt;" class="s1" d="m206.9 280.7l-2.8 0.8c-0.4-1.7-1-3.2-1.2-4.9l3-0.6c0.1 1.6 0.7 3.1 1 4.7z"/>
							<path id="&lt;Path&gt;" class="s1" d="m209.7 288.7l-2.7 1.2c-0.7-1.5-1.2-3.1-1.8-4.7l2.8-1c0.6 1.5 1 3.1 1.7 4.5z"/>
						</g>
						<g id="&lt;Group&gt;">
							<g id="&lt;Group&gt;">
								<path id="&lt;Path&gt;" class="s1" d="m202.3 258.7l3 0.3c-0.2 1.6-0.2 3.2-0.3 4.8l-3-0.1c0.1-1.7 0.1-3.4 0.3-5z"/>
								<path id="&lt;Path&gt;" class="s1" d="m204.1 249.9l2.9 0.8c-0.4 1.5-1 3-1.1 4.6l-3-0.5c0.2-1.7 0.8-3.3 1.2-4.9z"/>
								<path id="&lt;Path&gt;" class="s1" d="m209.8 242.7c-0.7 1.4-1.2 2.9-1.7 4.4l-2.9-1c0.6-1.5 1.1-3.2 1.8-4.6z"/>
							</g>
							<path id="&lt;Path&gt;" class="s1" d="m209.8 242.7c-0.7 1.4-1.2 2.9-1.7 4.4l-2.9-1c0.6-1.5 1.1-3.2 1.8-4.6z"/>
							<path id="&lt;Path&gt;" class="s1" d="m207 250.7c-0.4 1.5-1 3-1.1 4.6l-3-0.5c0.2-1.7 0.8-3.3 1.2-4.9z"/>
							<path id="&lt;Path&gt;" class="s1" d="m205.3 259c-0.2 1.6-0.2 3.2-0.3 4.8l-3-0.1c0.1-1.7 0.1-3.4 0.3-5z"/>
						</g>
						<g id="&lt;Group&gt;">
							<g id="&lt;Group&gt;">
								<path id="&lt;Path&gt;" class="s1" d="m211.3 233.5l2.5 1.6c-0.8 1.4-1.7 2.7-2.4 4.1l-2.6-1.4c0.7-1.5 1.7-2.9 2.5-4.3z"/>
								<path id="&lt;Path&gt;" class="s1" d="m216.6 226.3l2.3 2c-1.1 1.1-2 2.5-2.9 3.7l-2.5-1.7c1.1-1.4 2-2.8 3.1-4z"/>
								<path id="&lt;Path&gt;" class="s1" d="m224.9 222.3c-1.1 1.1-2.3 2.1-3.5 3.2l-2.1-2.1c1.2-1.1 2.5-2.2 3.7-3.4z"/>
							</g>
							<path id="&lt;Path&gt;" class="s1" d="m224.9 222.3c-1.1 1.1-2.3 2.1-3.5 3.2l-2.1-2.1c1.2-1.1 2.5-2.2 3.7-3.4z"/>
							<path id="&lt;Path&gt;" class="s1" d="m218.9 228.3c-1.1 1.1-2 2.5-2.9 3.7l-2.5-1.7c1.1-1.4 2-2.8 3.1-4z"/>
							<path id="&lt;Path&gt;" class="s1" d="m213.8 235.1c-0.8 1.4-1.7 2.7-2.4 4.1l-2.6-1.4c0.7-1.5 1.7-2.9 2.5-4.3z"/>
						</g>
						<g id="&lt;Group&gt;">
							<g id="&lt;Group&gt;">
								<path id="&lt;Path&gt;" class="s1" d="m230.3 214.7l1.6 2.6c-0.7 0.4-1.4 0.8-2 1.2l-1.9 1.4-1.8-2.4 2-1.5c0.7-0.4 1.4-0.8 2.1-1.3z"/>
								<path id="&lt;Path&gt;" class="s1" d="m238.2 210.5l1.2 2.8-4.3 2.1-1.4-2.7z"/>
								<path id="&lt;Path&gt;" class="s1" d="m247.4 210.6l-2.3 0.6c-0.7 0.2-1.5 0.5-2.2 0.8l-1-2.9c0.8-0.2 1.6-0.6 2.3-0.8l2.5-0.6z"/>
							</g>
							<path id="&lt;Path&gt;" class="s1" d="m247.4 210.6l-2.3 0.6c-0.7 0.2-1.5 0.5-2.2 0.8l-1-2.9c0.8-0.2 1.6-0.6 2.3-0.8l2.5-0.6z"/>
							<path id="&lt;Path&gt;" class="s1" d="m239.4 213.3l-4.3 2.1-1.4-2.7 4.5-2.2z"/>
							<path id="&lt;Path&gt;" class="s1" d="m231.9 217.3c-0.7 0.4-1.4 0.8-2 1.2l-1.9 1.4-1.8-2.4 2-1.5c0.7-0.4 1.4-0.8 2.1-1.3z"/>
						</g>
						<g id="&lt;Group&gt;">
							<g id="&lt;Group&gt;">
								<path id="&lt;Path&gt;" class="s1" d="m255.5 206l0.4 3-4.7 0.7-0.6-3z"/>
								<path id="&lt;Path&gt;" class="s1" d="m262 205.6l2.5 0.2-0.2 3-2.3-0.2-2.4 0.2-0.1-3z"/>
								<path id="&lt;Path&gt;" class="s1" d="m273.4 206.7l-0.6 3-4.7-0.7 0.3-3z"/>
							</g>
							<path id="&lt;Path&gt;" class="s1" d="m273.4 206.7l-0.6 3-4.7-0.7 0.3-3z"/>
							<path id="&lt;Path&gt;" class="s1" d="m264.5 205.8l-0.2 3-2.3-0.2-2.4 0.2-0.1-3 2.5-0.2z"/>
							<path id="&lt;Path&gt;" class="s1" d="m255.9 209l-4.7 0.7-0.6-3 4.9-0.7z"/>
						</g>
						<g id="&lt;Group&gt;">
							<g id="&lt;Group&gt;">
								<path id="&lt;Path&gt;" class="s1" d="m279.7 208.3l2.4 0.9-1 2.8-2.3-0.8-2.3-0.6 0.8-2.9z"/>
								<path id="&lt;Path&gt;" class="s1" d="m285.7 210.5l4.6 2.2-1.5 2.7-4.2-2.1z"/>
								<path id="&lt;Path&gt;" class="s1" d="m297.8 217.6l-1.8 2.4-1.9-1.5c-0.7-0.4-1.4-0.8-2-1.2l1.6-2.6c0.7 0.5 1.4 0.9 2.1 1.4z"/>
							</g>
							<path id="&lt;Path&gt;" class="s1" d="m297.8 217.6l-1.8 2.4-1.9-1.5c-0.7-0.4-1.4-0.8-2-1.2l1.6-2.6c0.7 0.5 1.4 0.9 2.1 1.4z"/>
							<path id="&lt;Path&gt;" class="s1" d="m290.3 212.7l-1.5 2.7-4.2-2.1 1.1-2.8z"/>
							<path id="&lt;Path&gt;" class="s1" d="m282.1 209.2l-1 2.8-2.3-0.8-2.3-0.6 0.8-2.9 2.4 0.6z"/>
						</g>
						<g id="&lt;Group&gt;">
							<g id="&lt;Group&gt;">
								<path id="&lt;Path&gt;" class="s1" d="m300.9 220.1c1.3 1.1 2.5 2.2 3.7 3.3l-2.1 2.2c-1.1-1.1-2.3-2.2-3.5-3.3z"/>
								<path id="&lt;Path&gt;" class="s1" d="m310.4 230.3l-2.4 1.7c-1-1.2-1.9-2.5-3-3.7l2.3-1.9c1.2 1.2 2.1 2.6 3.1 3.9z"/>
								<path id="&lt;Path&gt;" class="s1" d="m315.2 237.9l-2.7 1.4c-0.7-1.5-1.6-2.8-2.4-4.1l2.5-1.7c0.9 1.5 1.8 2.9 2.6 4.4z"/>
							</g>
							<path id="&lt;Path&gt;" class="s1" d="m315.2 237.9l-2.7 1.4c-0.7-1.5-1.6-2.8-2.4-4.1l2.5-1.7c0.9 1.5 1.8 2.9 2.6 4.4z"/>
							<path id="&lt;Path&gt;" class="s1" d="m310.4 230.3l-2.4 1.7c-1-1.2-1.9-2.5-3-3.7l2.3-1.9c1.2 1.2 2.1 2.6 3.1 3.9z"/>
							<path id="&lt;Path&gt;" class="s1" d="m304.6 223.4l-2.1 2.2c-1.1-1.1-2.3-2.2-3.5-3.3l1.9-2.2c1.3 1.1 2.5 2.2 3.7 3.3z"/>
						</g>
						<g id="&lt;Group&gt;">
							<g id="&lt;Group&gt;">
								<path id="&lt;Path&gt;" class="s1" d="m318.7 246.2l-2.8 0.9c-0.6-1.4-1-3-1.7-4.4l2.7-1.2c0.7 1.5 1.2 3.1 1.8 4.7z"/>
								<path id="&lt;Path&gt;" class="s1" d="m321 254.8l-3 0.5c-0.1-1.5-0.7-3-1-4.6l2.9-0.8c0.3 1.6 0.9 3.2 1.1 4.9z"/>
								<path id="&lt;Path&gt;" class="s1" d="m321.9 263.7l-3 0.1c-0.1-1.6-0.1-3.2-0.3-4.7l3-0.4c0.2 1.7 0.2 3.3 0.3 5z"/>
							</g>
							<path id="&lt;Path&gt;" class="s1" d="m321.9 263.7l-3 0.1c-0.1-1.6-0.1-3.2-0.3-4.7l3-0.4c0.2 1.7 0.2 3.3 0.3 5z"/>
							<path id="&lt;Path&gt;" class="s1" d="m321 254.8l-3 0.5c-0.1-1.5-0.7-3-1-4.6l2.9-0.8c0.3 1.6 0.9 3.2 1.1 4.9z"/>
							<path id="&lt;Path&gt;" class="s1" d="m318.7 246.2l-2.8 0.9c-0.6-1.4-1-3-1.7-4.4l2.7-1.2c0.7 1.5 1.2 3.1 1.8 4.7z"/>
						</g>
					</g>
				</g>
				<g id="&lt;Group&gt;">
					<path id="&lt;Path&gt;" class="s14" d="m774 366.8h-110.2v-110.2h110.2z"/>
					<g id="&lt;Group&gt;">
						<g id="&lt;Group&gt;">
							<g id="&lt;Group&gt;">
								<path id="&lt;Path&gt;" class="s1" d="m641.7 339.3v4.9h-3v-4.9z"/>
								<path id="&lt;Path&gt;" class="s1" d="m638.7 348.2h3v4.9h-3z"/>
								<path id="&lt;Path&gt;" class="s1" d="m638.7 357h3v5h-3z"/>
							</g>
							<path id="&lt;Path&gt;" class="s1" d="m641.7 339.3v4.9h-3v-4.9z"/>
							<path id="&lt;Path&gt;" class="s1" d="m641.7 348.2v4.9h-3v-4.9z"/>
							<path id="&lt;Path&gt;" class="s1" d="m641.7 357v5h-3v-5z"/>
						</g>
						<g id="&lt;Group&gt;">
							<g id="&lt;Group&gt;">
								<path id="&lt;Path&gt;" class="s1" d="m641.7 312.5v5h-3v-5z"/>
								<path id="&lt;Path&gt;" class="s1" d="m638.7 321.4h3v5h-3z"/>
								<path id="&lt;Path&gt;" class="s1" d="m638.7 330.3h3v5h-3z"/>
							</g>
							<path id="&lt;Path&gt;" class="s1" d="m641.7 312.5v5h-3v-5z"/>
							<path id="&lt;Path&gt;" class="s1" d="m641.7 321.4v5h-3v-5z"/>
							<path id="&lt;Path&gt;" class="s1" d="m641.7 330.3v5h-3v-5z"/>
						</g>
						<g id="&lt;Group&gt;">
							<g id="&lt;Group&gt;">
								<path id="&lt;Path&gt;" class="s1" d="m641.7 285.8v5h-3v-5z"/>
								<path id="&lt;Path&gt;" class="s1" d="m638.7 294.7h3v5h-3z"/>
								<path id="&lt;Path&gt;" class="s1" d="m638.7 303.6h3v4.9h-3z"/>
							</g>
							<path id="&lt;Path&gt;" class="s1" d="m641.7 285.8v5h-3v-5z"/>
							<path id="&lt;Path&gt;" class="s1" d="m641.7 294.7v5h-3v-5z"/>
							<path id="&lt;Path&gt;" class="s1" d="m641.7 303.6v4.9h-3v-4.9z"/>
						</g>
						<g id="&lt;Group&gt;">
							<g id="&lt;Group&gt;">
								<path id="&lt;Path&gt;" class="s1" d="m656.8 267.8h5v3h-5z"/>
								<path id="&lt;Path&gt;" class="s1" d="m665.7 267.8h4.9v3h-4.9z"/>
								<path id="&lt;Path&gt;" class="s1" d="m679.5 267.8v3h-4.9v-3z"/>
							</g>
							<path id="&lt;Path&gt;" class="s1" d="m679.5 267.8v3h-4.9v-3z"/>
							<path id="&lt;Path&gt;" class="s1" d="m670.6 267.8v3h-4.9v-3z"/>
							<path id="&lt;Path&gt;" class="s1" d="m661.8 267.8v3h-5v-3z"/>
						</g>
						<g id="&lt;Group&gt;">
							<g id="&lt;Group&gt;">
								<path id="&lt;Path&gt;" class="s1" d="m683.5 267.8h5v3h-5z"/>
								<path id="&lt;Path&gt;" class="s1" d="m692.4 267.8h5v3h-5z"/>
								<path id="&lt;Path&gt;" class="s1" d="m706.3 267.8v3h-5v-3z"/>
							</g>
							<path id="&lt;Path&gt;" class="s1" d="m706.3 267.8v3h-5v-3z"/>
							<path id="&lt;Path&gt;" class="s1" d="m697.4 267.8v3h-5v-3z"/>
							<path id="&lt;Path&gt;" class="s1" d="m688.5 267.8v3h-5v-3z"/>
						</g>
						<g id="&lt;Group&gt;">
							<g id="&lt;Group&gt;">
								<path id="&lt;Path&gt;" class="s1" d="m710.3 267.8h4.9v3h-4.9z"/>
								<path id="&lt;Path&gt;" class="s1" d="m719.1 267.8h5v3h-5z"/>
								<path id="&lt;Path&gt;" class="s1" d="m733 267.8v3h-5v-3z"/>
							</g>
							<path id="&lt;Path&gt;" class="s1" d="m733 267.8v3h-5v-3z"/>
							<path id="&lt;Path&gt;" class="s1" d="m724.1 267.8v3h-5v-3z"/>
							<path id="&lt;Path&gt;" class="s1" d="m715.2 267.8v3h-4.9v-3z"/>
						</g>
						<g id="&lt;Group&gt;">
							<g id="&lt;Group&gt;">
								<path id="&lt;Path&gt;" class="s1" d="m751 285.8v5h-3v-5z"/>
								<path id="&lt;Path&gt;" class="s1" d="m748 294.7h3v5h-3z"/>
								<path id="&lt;Path&gt;" class="s1" d="m748 303.6h3v5h-3z"/>
							</g>
							<path id="&lt;Path&gt;" class="s1" d="m751 303.6v5h-3v-5z"/>
							<path id="&lt;Path&gt;" class="s1" d="m751 294.7v5h-3v-5z"/>
							<path id="&lt;Path&gt;" class="s1" d="m751 285.8v5h-3v-5z"/>
						</g>
						<g id="&lt;Group&gt;">
							<g id="&lt;Group&gt;">
								<path id="&lt;Path&gt;" class="s1" d="m751 312.6v4.9h-3v-4.9z"/>
								<path id="&lt;Path&gt;" class="s1" d="m748 321.5h3v4.9h-3z"/>
								<path id="&lt;Path&gt;" class="s1" d="m748 330.4h3v4.9h-3z"/>
							</g>
							<path id="&lt;Path&gt;" class="s1" d="m751 330.4v4.9h-3v-4.9z"/>
							<path id="&lt;Path&gt;" class="s1" d="m751 321.5v4.9h-3v-4.9z"/>
							<path id="&lt;Path&gt;" class="s1" d="m751 312.6v4.9h-3v-4.9z"/>
						</g>
						<g id="&lt;Group&gt;">
							<g id="&lt;Group&gt;">
								<path id="&lt;Path&gt;" class="s1" d="m751 339.3v5h-3v-5z"/>
								<path id="&lt;Path&gt;" class="s1" d="m748 348.2h3v4.9h-3z"/>
								<path id="&lt;Path&gt;" class="s1" d="m748 357.1h3v5h-3z"/>
							</g>
							<path id="&lt;Path&gt;" class="s1" d="m751 357.1v5h-3v-5z"/>
							<path id="&lt;Path&gt;" class="s1" d="m751 348.2v4.9h-3v-4.9z"/>
							<path id="&lt;Path&gt;" class="s1" d="m751 339.3v5h-3v-5z"/>
						</g>
						<g id="&lt;Group&gt;">
							<g id="&lt;Group&gt;">
								<path id="&lt;Path&gt;" class="s1" d="m710.2 377.1h5v3h-5z"/>
								<path id="&lt;Path&gt;" class="s1" d="m719.1 377.1h5v3h-5z"/>
								<path id="&lt;Path&gt;" class="s1" d="m732.9 377.1v3h-4.9v-3z"/>
							</g>
							<path id="&lt;Path&gt;" class="s1" d="m715.2 377.1v3h-5v-3z"/>
							<path id="&lt;Path&gt;" class="s1" d="m724.1 377.1v3h-5v-3z"/>
							<path id="&lt;Path&gt;" class="s1" d="m732.9 377.1v3h-4.9v-3z"/>
						</g>
						<g id="&lt;Group&gt;">
							<g id="&lt;Group&gt;">
								<path id="&lt;Path&gt;" class="s1" d="m683.5 377.1h4.9v3h-4.9z"/>
								<path id="&lt;Path&gt;" class="s1" d="m692.4 377.1h4.9v3h-4.9z"/>
								<path id="&lt;Path&gt;" class="s1" d="m706.2 377.1v3h-4.9v-3z"/>
							</g>
							<path id="&lt;Path&gt;" class="s1" d="m688.4 377.1v3h-4.9v-3z"/>
							<path id="&lt;Path&gt;" class="s1" d="m697.3 377.1v3h-4.9v-3z"/>
							<path id="&lt;Path&gt;" class="s1" d="m706.2 377.1v3h-4.9v-3z"/>
						</g>
						<g id="&lt;Group&gt;">
							<g id="&lt;Group&gt;">
								<path id="&lt;Path&gt;" class="s1" d="m656.7 377.1h5v3h-5z"/>
								<path id="&lt;Path&gt;" class="s1" d="m665.6 377.1h5v3h-5z"/>
								<path id="&lt;Path&gt;" class="s1" d="m679.5 377.1v3h-5v-3z"/>
							</g>
							<path id="&lt;Path&gt;" class="s1" d="m661.7 377.1v3h-5v-3z"/>
							<path id="&lt;Path&gt;" class="s1" d="m670.6 377.1v3h-5v-3z"/>
							<path id="&lt;Path&gt;" class="s1" d="m679.5 377.1v3h-5v-3z"/>
						</g>
						<g id="&lt;Group&gt;">
							<path id="&lt;Path&gt;" class="s1" d="m638.5 281.8h3v-5h-3z"/>
							<path id="&lt;Path&gt;" class="s1" d="m638.5 267.8v5h3v-2h2v-3z"/>
							<path id="&lt;Path&gt;" class="s1" d="m647.5 267.8v3h5v-3z"/>
						</g>
						<g id="&lt;Group&gt;">
							<path id="&lt;Path&gt;" class="s1" d="m737 267.5v3.1h5v-3.1z"/>
							<path id="&lt;Path&gt;" class="s1" d="m751 267.5h-5v3.1h2v1.9h3z"/>
							<path id="&lt;Path&gt;" class="s1" d="m751 276.5h-3v5h3z"/>
						</g>
						<g id="&lt;Group&gt;">
							<path id="&lt;Path&gt;" class="s1" d="m751.3 366.1h-3.1v5h3.1z"/>
							<path id="&lt;Path&gt;" class="s1" d="m751.3 380.1v-5h-3.1v2h-1.9v3z"/>
							<path id="&lt;Path&gt;" class="s1" d="m742.3 380.1v-3h-5v3z"/>
						</g>
						<g id="&lt;Group&gt;">
							<path id="&lt;Path&gt;" class="s1" d="m652.7 380.3v-3h-5v3z"/>
							<path id="&lt;Path&gt;" class="s1" d="m638.7 380.3h5v-3h-2v-2h-3z"/>
							<path id="&lt;Path&gt;" class="s1" d="m638.7 371.3h3v-5h-3z"/>
						</g>
					</g>
				</g>
				<g id="&lt;Group&gt;">
					<path id="&lt;Path&gt;" class="s6" d="m479.7 701.8l-67.8 117.5h135.7z"/>
					<g id="&lt;Group&gt;">
						<g id="&lt;Group&gt;">
							<g id="&lt;Group&gt;">
								<path id="&lt;Path&gt;" class="s1" d="m415.9 830.4h5.2v3h-5.2z"/>
								<path id="&lt;Path&gt;" class="s1" d="m425.2 830.4h5.2v3h-5.2z"/>
								<path id="&lt;Path&gt;" class="s1" d="m439.7 830.4v3h-5.2v-3z"/>
							</g>
							<path id="&lt;Path&gt;" class="s1" d="m439.7 830.4v3h-5.2v-3z"/>
							<path id="&lt;Path&gt;" class="s1" d="m430.4 830.4v3h-5.2v-3z"/>
							<path id="&lt;Path&gt;" class="s1" d="m421.1 830.4v3h-5.2v-3z"/>
						</g>
						<g id="&lt;Group&gt;">
							<g id="&lt;Group&gt;">
								<path id="&lt;Path&gt;" class="s1" d="m443.9 830.4h5.1v3h-5.1z"/>
								<path id="&lt;Path&gt;" class="s1" d="m453.1 830.4h5.2v3h-5.2z"/>
								<path id="&lt;Path&gt;" class="s1" d="m467.6 830.4v3h-5.2v-3z"/>
							</g>
							<path id="&lt;Path&gt;" class="s1" d="m467.6 830.4v3h-5.2v-3z"/>
							<path id="&lt;Path&gt;" class="s1" d="m458.3 830.4v3h-5.2v-3z"/>
							<path id="&lt;Path&gt;" class="s1" d="m449 830.4v3h-5.1v-3z"/>
						</g>
						<g id="&lt;Group&gt;">
							<g id="&lt;Group&gt;">
								<path id="&lt;Path&gt;" class="s1" d="m471.8 830.4h5.1v3h-5.1z"/>
								<path id="&lt;Path&gt;" class="s1" d="m481 830.4h5.2v3h-5.2z"/>
								<path id="&lt;Path&gt;" class="s1" d="m495.5 830.4v3h-5.2v-3z"/>
							</g>
							<path id="&lt;Path&gt;" class="s1" d="m495.5 830.4v3h-5.2v-3z"/>
							<path id="&lt;Path&gt;" class="s1" d="m486.2 830.4v3h-5.2v-3z"/>
							<path id="&lt;Path&gt;" class="s1" d="m476.9 830.4v3h-5.1v-3z"/>
						</g>
						<g id="&lt;Group&gt;">
							<g id="&lt;Group&gt;">
								<path id="&lt;Path&gt;" class="s1" d="m501.9 790.1l-2.6 1.5-2.6-4.5 2.6-1.5z"/>
								<path id="&lt;Path&gt;" class="s1" d="m506.5 798.1l-2.6 1.5-2.6-4.5 2.6-1.5z"/>
								<path id="&lt;Path&gt;" class="s1" d="m511.2 806.1l-2.6 1.5-2.6-4.4 2.6-1.5z"/>
							</g>
							<path id="&lt;Path&gt;" class="s1" d="m501.9 790.1l-2.6 1.5-2.6-4.5 2.6-1.5z"/>
							<path id="&lt;Path&gt;" class="s1" d="m506.5 798.1l-2.6 1.5-2.6-4.5 2.6-1.5z"/>
							<path id="&lt;Path&gt;" class="s1" d="m511.2 806.1l-2.6 1.5-2.6-4.4 2.6-1.5z"/>
						</g>
						<g id="&lt;Group&gt;">
							<g id="&lt;Group&gt;">
								<path id="&lt;Path&gt;" class="s1" d="m487.9 765.9l-2.6 1.5-2.6-4.5 2.6-1.5z"/>
								<path id="&lt;Path&gt;" class="s1" d="m492.6 774l-2.6 1.5-2.6-4.5 2.6-1.5z"/>
								<path id="&lt;Path&gt;" class="s1" d="m497.2 782l-2.6 1.5-2.6-4.5 2.6-1.5z"/>
							</g>
							<path id="&lt;Path&gt;" class="s1" d="m487.9 765.9l-2.6 1.5-2.6-4.5 2.6-1.5z"/>
							<path id="&lt;Path&gt;" class="s1" d="m492.6 774l-2.6 1.5-2.6-4.5 2.6-1.5z"/>
							<path id="&lt;Path&gt;" class="s1" d="m497.2 782l-2.6 1.5-2.6-4.5 2.6-1.5z"/>
						</g>
						<g id="&lt;Group&gt;">
							<g id="&lt;Group&gt;">
								<path id="&lt;Path&gt;" class="s1" d="m474 741.7l-2.6 1.5-2.6-4.4 2.6-1.5z"/>
								<path id="&lt;Path&gt;" class="s1" d="m478.6 749.8l-2.6 1.5-2.6-4.5 2.6-1.5z"/>
								<path id="&lt;Path&gt;" class="s1" d="m483.3 757.8l-2.6 1.5-2.6-4.5 2.6-1.5z"/>
							</g>
							<path id="&lt;Path&gt;" class="s1" d="m474 741.7l-2.6 1.5-2.6-4.4 2.6-1.5z"/>
							<path id="&lt;Path&gt;" class="s1" d="m478.6 749.8l-2.6 1.5-2.6-4.5 2.6-1.5z"/>
							<path id="&lt;Path&gt;" class="s1" d="m483.3 757.8l-2.6 1.5-2.6-4.5 2.6-1.5z"/>
						</g>
						<g id="&lt;Group&gt;">
							<g id="&lt;Group&gt;">
								<path id="&lt;Path&gt;" class="s1" d="m430.7 753.4l2.6 1.5-2.6 4.5-2.6-1.5z"/>
								<path id="&lt;Path&gt;" class="s1" d="m435.3 745.3l2.6 1.5-2.6 4.5-2.6-1.5z"/>
								<path id="&lt;Path&gt;" class="s1" d="m442.6 738.8l-2.6 4.5-2.6-1.5 2.6-4.5z"/>
							</g>
							<path id="&lt;Path&gt;" class="s1" d="m433.3 754.9l-2.6 4.5-2.6-1.5 2.6-4.5z"/>
							<path id="&lt;Path&gt;" class="s1" d="m437.9 746.8l-2.6 4.5-2.6-1.5 2.6-4.5z"/>
							<path id="&lt;Path&gt;" class="s1" d="m442.6 738.8l-2.6 4.5-2.6-1.5 2.6-4.5z"/>
						</g>
						<g id="&lt;Group&gt;">
							<g id="&lt;Group&gt;">
								<path id="&lt;Path&gt;" class="s1" d="m416.7 777.5l2.6 1.5-2.6 4.5-2.5-1.5z"/>
								<path id="&lt;Path&gt;" class="s1" d="m421.4 769.5l2.6 1.5-2.6 4.5-2.6-1.5z"/>
								<path id="&lt;Path&gt;" class="s1" d="m428.6 763l-2.6 4.5-2.6-1.5 2.6-4.5z"/>
							</g>
							<path id="&lt;Path&gt;" class="s1" d="m419.3 779l-2.6 4.5-2.5-1.5 2.5-4.5z"/>
							<path id="&lt;Path&gt;" class="s1" d="m424 771l-2.6 4.5-2.6-1.5 2.6-4.5z"/>
							<path id="&lt;Path&gt;" class="s1" d="m428.6 763l-2.6 4.5-2.6-1.5 2.6-4.5z"/>
						</g>
						<g id="&lt;Group&gt;">
							<g id="&lt;Group&gt;">
								<path id="&lt;Path&gt;" class="s1" d="m402.8 801.7l2.6 1.5-2.6 4.5-2.6-1.5z"/>
								<path id="&lt;Path&gt;" class="s1" d="m407.4 793.7l2.6 1.5-2.6 4.4-2.6-1.5z"/>
								<path id="&lt;Path&gt;" class="s1" d="m414.7 787.1l-2.6 4.5-2.6-1.5 2.6-4.5z"/>
							</g>
							<path id="&lt;Path&gt;" class="s1" d="m405.4 803.2l-2.6 4.5-2.6-1.5 2.6-4.5z"/>
							<path id="&lt;Path&gt;" class="s1" d="m410 795.2l-2.6 4.4-2.6-1.5 2.6-4.4z"/>
							<path id="&lt;Path&gt;" class="s1" d="m414.7 787.1l-2.6 4.5-2.6-1.5 2.6-4.5z"/>
						</g>
						<g id="&lt;Group&gt;">
							<path id="&lt;Path&gt;" class="s1" d="m501.1 832.7v-3h8.7v3z"/>
							<path id="&lt;Path&gt;" class="s1" d="m525.4 832.7h-8.7v-3h3.5v-0.1-0.1l-0.1-0.1-0.2-0.3-0.4-0.8-0.9-1.5 2.6-1.5 2.2 3.8 1.1 1.8 0.5 1 0.3 0.4 0.1 0.2v0.1z"/>
							<path id="&lt;Path&gt;" class="s1" d="m517.8 819.3l-2.6 1.5-4.4-7.5 2.6-1.5z"/>
						</g>
						<g id="&lt;Group&gt;">
							<path id="&lt;Path&gt;" class="s1" d="m468 732.7l-2.6 1.5-4.3-7.5 2.6-1.5z"/>
							<path id="&lt;Path&gt;" class="s1" d="m455.9 711.7l4.3 7.5-2.6 1.5-1.7-3-0.1 0.1h-0.1v0.1l-0.3 0.4-0.4 0.7-0.8 1.5-2.6-1.5 2.1-3.7 1.1-1.9 0.5-1 0.3-0.4 0.1-0.1v-0.1z"/>
							<path id="&lt;Path&gt;" class="s1" d="m448.1 725l2.6 1.5-4.3 7.5-2.6-1.5z"/>
						</g>
						<g id="&lt;Group&gt;">
							<path id="&lt;Path&gt;" class="s1" d="m398 811.4l2.6 1.5-4.4 7.5-2.6-1.5z"/>
							<path id="&lt;Path&gt;" class="s1" d="m385.8 832.4l4.4-7.5 2.6 1.5-1.8 3 0.2 0.1h0.1 0.4 0.9 1.7v3h-4.3-2.2-1.1-0.5-0.1-0.1z"/>
							<path id="&lt;Path&gt;" class="s1" d="m401.2 832.5v-3h8.7v3z"/>
						</g>
					</g>
				</g>
			</g>
		</g>
	</g>
	
</svg>