<?xml version="1.0" standalone="no"?>
<!DOCTYPE svg PUBLIC "-//W3C//DTD SVG 20010904//EN"
 "http://www.w3.org/TR/2001/REC-SVG-20010904/DTD/svg10.dtd">
<svg version="1.0" xmlns="http://www.w3.org/2000/svg"
 width="500.000000pt" height="500.000000pt" viewBox="0 0 500.000000 500.000000"
 preserveAspectRatio="xMidYMid meet">
<metadata>
Created by potrace 1.14, written by Peter Selinger 2001-2017
</metadata>
<g transform="translate(0.000000,500.000000) scale(0.100000,-0.100000)"
fill="#000000" stroke="none">
<path d="M2409 4906 c-2 -2 -33 -7 -69 -10 -96 -10 -127 -15 -205 -32 -38 -9
-77 -17 -85 -19 -109 -23 -350 -109 -480 -172 -390 -187 -772 -518 -986 -853
-16 -25 -37 -54 -46 -64 -10 -11 -18 -24 -18 -29 0 -5 -9 -21 -19 -36 -56 -78
-193 -376 -227 -491 -36 -125 -74 -265 -78 -293 -3 -18 -8 -43 -10 -57 -45
-237 -51 -461 -21 -750 12 -114 46 -270 95 -425 56 -181 72 -205 125 -185 30
12 32 33 5 95 -38 88 -101 319 -115 420 -3 28 -8 64 -11 80 -18 122 -22 194
-19 365 2 107 5 204 8 215 2 11 7 47 11 80 10 91 31 192 60 290 1 6 8 30 15
54 21 74 23 37 2 -45 -27 -110 -49 -229 -58 -321 -14 -142 -6 -486 12 -553 2
-8 6 -32 10 -53 13 -92 77 -321 115 -412 4 -11 18 -45 30 -75 38 -95 117 -241
188 -350 299 -459 760 -794 1282 -934 231 -62 309 -71 590 -71 277 0 365 11
610 78 204 56 498 193 640 299 14 10 54 40 90 66 87 63 123 96 265 237 66 66
119 118 117 115 -41 -63 -268 -285 -372 -365 -29 -22 -67 -51 -84 -66 -35 -28
-221 -149 -230 -149 -4 0 -23 -10 -44 -23 -121 -74 -430 -191 -582 -221 -14
-2 -47 -9 -74 -15 -27 -7 -63 -14 -80 -16 -17 -2 -56 -8 -86 -12 -70 -10 -446
-10 -525 0 -248 31 -488 104 -715 216 -68 34 -131 68 -140 76 -9 8 -20 15 -24
15 -11 0 -174 117 -241 173 -33 28 -111 101 -174 164 -63 62 -120 113 -127
113 -64 0 -59 -50 12 -130 270 -303 637 -530 1044 -648 58 -17 116 -33 130
-35 192 -35 308 -46 560 -51 66 -2 272 19 380 38 45 8 253 63 305 81 263 88
577 264 779 435 198 168 342 326 489 537 31 44 57 84 57 87 0 3 12 22 26 43
66 97 180 351 238 530 36 113 81 308 92 399 3 27 8 62 11 79 3 16 7 130 8 252
2 255 -3 309 -50 528 -71 333 -209 637 -411 905 -99 133 -138 175 -319 345
-205 193 -618 414 -900 481 -139 33 -190 43 -240 49 -33 4 -71 9 -85 12 -29 6
-445 14 -451 9z m411 -101 c329 -34 683 -158 948 -333 48 -31 91 -59 96 -61 5
-2 16 -9 25 -17 119 -95 161 -133 251 -223 113 -115 218 -247 299 -378 28 -46
51 -85 51 -87 0 -3 13 -27 28 -53 81 -139 193 -456 218 -618 4 -27 8 -54 10
-60 28 -119 40 -421 21 -575 -4 -36 -10 -85 -13 -110 -3 -25 -8 -56 -10 -70
-3 -14 -7 -41 -10 -60 -16 -111 -120 -458 -146 -485 -5 -5 4 26 20 70 26 74
68 218 78 269 2 11 8 42 14 67 23 96 37 298 34 474 -2 99 -6 191 -8 205 -2 14
-7 45 -10 70 -11 87 -64 308 -91 380 -69 183 -120 295 -193 420 -49 83 -113
179 -152 226 -14 17 -41 51 -60 75 -37 47 -212 225 -270 274 -19 17 -64 51
-100 77 -36 26 -70 52 -76 57 -37 30 -210 130 -306 176 -217 103 -425 164
-678 201 -109 15 -548 12 -615 -4 -22 -6 -57 -13 -78 -16 -77 -12 -274 -66
-365 -101 -314 -119 -554 -273 -798 -511 -46 -44 -79 -73 -74 -64 17 32 240
238 333 308 198 150 399 262 609 341 190 71 437 127 603 138 50 3 91 7 93 8 5
5 259 -3 322 -10z m-1980 -818 c0 -2 -10 -12 -22 -23 l-23 -19 19 23 c18 21
26 27 26 19z m-60 -71 c0 -2 -8 -10 -17 -17 -16 -13 -17 -12 -4 4 13 16 21 21
21 13z m-371 -652 c-7 -16 -18 -43 -25 -61 -8 -17 -14 -38 -14 -47 0 -9 -4
-16 -10 -16 -9 0 -3 25 19 75 5 11 15 35 21 53 7 18 15 31 17 29 2 -3 -2 -17
-8 -33z m4147 -1671 c-8 -15 -15 -25 -16 -21 0 12 23 58 27 54 3 -2 -2 -17
-11 -33z m-33 -68 c-3 -9 -8 -14 -10 -11 -3 3 -2 9 2 15 9 16 15 13 8 -4z
m-173 -299 c0 -2 -8 -10 -17 -17 -16 -13 -17 -12 -4 4 13 16 21 21 21 13z
m-40 -59 c0 -2 -10 -12 -22 -23 l-23 -19 19 23 c18 21 26 27 26 19z m-40 -51
c0 -2 -8 -10 -17 -17 -16 -13 -17 -12 -4 4 13 16 21 21 21 13z"/>
</g>
</svg>
