<?xml version="1.0" standalone="no"?>
<!DOCTYPE svg PUBLIC "-//W3C//DTD SVG 20010904//EN"
 "http://www.w3.org/TR/2001/REC-SVG-20010904/DTD/svg10.dtd">
<svg version="1.0" xmlns="http://www.w3.org/2000/svg"
 width="700.000000pt" height="700.000000pt" viewBox="0 0 700.000000 700.000000"
 preserveAspectRatio="xMidYMid meet">
<metadata>
Created by potrace 1.14, written by Peter Selinger 2001-2017
</metadata>
<g transform="translate(0.000000,700.000000) scale(0.100000,-0.100000)"
fill="#000000" stroke="none">
<path d="M3400 5625 c-47 -18 -119 -44 -160 -59 -41 -15 -84 -31 -95 -37 -11
-5 -76 -29 -145 -54 -69 -25 -134 -49 -145 -54 -11 -5 -56 -23 -100 -39 -183
-66 -686 -254 -745 -277 -19 -8 -170 -64 -335 -125 -165 -62 -370 -138 -455
-170 -85 -32 -254 -95 -375 -140 -121 -44 -236 -87 -255 -95 -19 -8 -152 -58
-295 -111 -143 -53 -261 -98 -263 -99 -2 -2 23 -12 55 -23 32 -11 87 -31 123
-45 78 -29 429 -160 520 -193 36 -14 146 -55 245 -93 l180 -68 1 -222 c1 -204
0 -223 -17 -231 -30 -16 -62 -70 -66 -111 -4 -30 2 -54 23 -96 26 -53 27 -66
29 -202 2 -170 2 -164 16 -155 8 4 9 -5 5 -32 -3 -22 -8 -70 -11 -109 -4 -38
-8 -86 -10 -105 -2 -19 -7 -66 -10 -105 -4 -38 -8 -81 -10 -95 -2 -14 -7 -61
-10 -105 -4 -44 -8 -91 -10 -105 -2 -14 -7 -61 -11 -105 -3 -44 -8 -88 -10
-98 -1 -10 -6 -50 -9 -90 -3 -39 -8 -94 -11 -122 -4 -27 -7 -63 -9 -80 -10
-117 -17 -194 -21 -215 -9 -58 -6 -131 7 -146 8 -9 32 -28 54 -43 37 -24 48
-26 150 -26 101 0 114 2 155 27 75 44 76 50 55 253 -2 22 -9 92 -15 155 -6 63
-13 135 -15 160 -3 25 -7 70 -10 100 -3 30 -8 73 -10 95 -2 22 -7 72 -10 110
-3 39 -8 88 -10 110 -13 122 -22 224 -30 310 -3 39 -8 88 -10 110 -15 132 -16
157 -6 150 13 -7 13 -10 13 175 0 124 3 148 18 165 23 26 38 74 34 105 -8 54
-15 69 -51 104 l-37 36 -1 190 c0 104 1 190 2 190 4 0 325 -119 363 -135 19
-8 134 -50 255 -95 121 -44 236 -87 255 -95 19 -8 224 -85 455 -170 231 -86
523 -195 650 -243 l230 -85 80 27 c44 15 89 31 100 36 11 5 191 73 400 151
762 283 1211 450 1235 460 14 6 68 26 120 45 52 19 104 38 115 43 18 8 782
293 1015 378 52 19 104 39 115 44 11 5 76 29 144 54 68 25 130 49 138 54 10 5
-40 28 -154 70 -92 34 -177 66 -188 71 -11 5 -83 32 -160 60 -77 28 -149 56
-160 60 -11 5 -119 45 -240 90 -121 44 -254 94 -295 109 -41 16 -208 79 -370
139 -162 61 -410 153 -552 206 -141 53 -259 96 -263 96 -3 0 -25 8 -48 19 -23
10 -100 40 -172 66 -71 26 -157 58 -190 70 -263 101 -658 245 -672 244 -10 -1
-56 -16 -103 -34z"/>
<path d="M1743 3167 c5 -454 6 -467 79 -602 165 -309 555 -555 1063 -670 95
-21 231 -44 307 -51 35 -3 74 -7 88 -10 33 -6 393 -5 450 1 142 15 227 25 246
29 12 2 39 7 60 10 50 8 216 48 244 58 8 4 40 14 70 23 164 50 368 148 505
243 107 74 250 220 308 313 43 69 86 172 103 245 11 52 11 814 0 814 -10 0
-177 -60 -221 -79 -11 -5 -240 -91 -510 -192 -269 -100 -591 -220 -715 -267
-351 -131 -294 -122 -440 -67 -69 25 -159 59 -200 75 -110 42 -506 190 -570
212 -30 11 -64 23 -75 28 -18 9 -434 164 -615 230 -41 15 -99 37 -128 48 l-53
21 4 -412z"/>
</g>
</svg>
